<svg width="253" height="175" viewBox="0 0 253 175" fill="none" xmlns="http://www.w3.org/2000/svg">
<path fill-rule="evenodd" clip-rule="evenodd" d="M117.775 350.41C126.171 333.751 135.921 311.336 133.48 288.76C132.716 281.69 130.757 274.611 127.194 267.692C126.492 262.378 125.1 257.066 122.843 251.827C122.799 251.294 122.748 250.762 122.691 250.229C122.256 246.207 121.434 242.181 120.15 238.183C120.116 236.184 119.995 234.18 119.779 232.174C119.711 231.553 119.635 230.932 119.549 230.312C127.002 214.557 134.191 194.937 132.057 175.193C129.612 152.584 114.95 129.875 74.6787 112.624C27.7864 92.5377 -7.08753 98.3488 -33.9174 102.82C-36.4079 103.235 -38.8292 103.638 -41.1843 104.008C-55.0576 106.188 -66.5663 107.197 -76.4618 102.687C-86.3468 98.1811 -94.6947 88.1293 -102.12 67.9981L-102.68 68.1775C-95.2371 88.3556 -86.8196 98.579 -76.7227 103.181C-66.6364 107.779 -54.947 106.729 -41.0867 104.551C-38.7294 104.18 -36.3072 103.777 -33.817 103.362C-7.00165 98.8946 27.7105 93.1116 74.4306 113.125C114.551 130.311 129.048 152.871 131.468 175.249C133.551 194.511 126.693 213.684 119.396 229.266C119.33 228.846 119.261 228.425 119.186 228.005C119.243 227.238 119.289 226.469 119.323 225.7C123.678 213.521 126.571 200.092 125.113 186.606C122.668 163.996 108.006 141.287 67.7345 124.037C20.8421 103.95 -14.0318 109.761 -40.8616 114.232C-43.3522 114.647 -45.7734 115.051 -48.1285 115.421C-62.0018 117.601 -73.5105 118.61 -83.406 114.099C-93.291 109.594 -101.639 99.5418 -109.065 79.4106L-109.624 79.5901C-102.181 99.7682 -93.7638 109.992 -83.667 114.594C-73.5806 119.191 -61.8912 118.142 -48.0309 115.964C-45.6736 115.593 -43.2514 115.19 -40.7612 114.775C-13.9459 110.307 20.7663 104.524 67.4864 124.537C107.607 141.723 122.104 164.283 124.524 186.662C125.901 199.401 123.368 212.102 119.383 223.75L119.385 223.65L119.387 223.475C120.945 215.84 121.588 207.944 120.732 200.027C118.288 177.418 103.625 154.709 63.3544 137.459C16.462 117.372 -18.4119 123.183 -45.2417 127.654L-45.248 127.655C-47.7363 128.069 -50.1555 128.472 -52.5086 128.842C-66.3819 131.023 -77.8906 132.032 -87.7861 127.521C-97.6711 123.015 -106.019 112.963 -113.445 92.8322L-114.004 93.0116C-106.561 113.19 -98.1439 123.413 -88.0471 128.015C-77.9607 132.613 -66.2713 131.563 -52.411 129.385C-50.0537 129.015 -47.6315 128.611 -45.1413 128.196C-18.3259 123.729 16.3862 117.946 63.1063 137.959C103.227 155.145 117.724 177.705 120.144 200.083C120.883 206.921 120.496 213.748 119.362 220.406C119.311 218.714 119.196 217.018 119.013 215.321C116.568 192.712 101.906 170.003 61.6345 152.752C14.7421 132.666 -20.1318 138.477 -46.9616 142.947L-46.9651 142.948C-49.4544 143.363 -51.8745 143.766 -54.2285 144.136C-68.1018 146.316 -79.6105 147.325 -89.506 142.815C-99.391 138.309 -107.739 128.257 -115.165 108.126L-115.724 108.305C-108.281 128.484 -99.8638 138.707 -89.767 143.309C-79.6806 147.907 -67.9912 146.857 -54.1309 144.679C-51.7742 144.309 -49.3528 143.905 -46.8633 143.49L-46.8612 143.49C-20.0459 139.023 14.6663 133.24 61.3863 153.253C101.507 170.439 116.004 192.999 118.424 215.377C118.714 218.063 118.831 220.748 118.797 223.421C118.706 223.863 118.613 224.303 118.517 224.743C113.812 204.652 98.2571 184.965 62.4005 169.605C15.5081 149.519 -19.3658 155.33 -46.1956 159.801L-46.2076 159.803L-46.218 159.804L-46.2345 159.807L-46.2384 159.808C-48.7139 160.22 -51.1209 160.621 -53.4625 160.989C-67.3358 163.169 -78.8445 164.178 -88.74 159.668C-98.625 155.162 -106.973 145.11 -114.398 124.979L-114.958 125.159C-107.515 145.337 -99.0978 155.56 -89.001 160.162C-78.9146 164.76 -67.2252 163.71 -53.3649 161.532C-51.0076 161.161 -48.5854 160.758 -46.0952 160.343C-19.2798 155.876 15.4323 150.093 62.1524 170.106C98.6024 185.719 113.903 205.769 118.212 226.088C117.996 227.013 117.767 227.934 117.526 228.85C117.342 229.33 117.155 229.807 116.967 230.281C109.33 214.662 93.6703 199.808 65.3126 187.661C18.4202 167.574 -16.4537 173.385 -43.2835 177.856C-45.7741 178.271 -48.1953 178.674 -50.5504 179.044C-64.4237 181.224 -75.9325 182.234 -85.8279 177.723C-95.7129 173.217 -104.061 163.165 -111.486 143.034L-112.046 143.214C-104.603 163.392 -96.1857 173.615 -86.0889 178.217C-76.0026 182.815 -64.3131 181.765 -50.4528 179.587C-48.0955 179.217 -45.6734 178.813 -43.1831 178.398C-16.3678 173.931 18.3443 168.148 65.0644 188.161C93.6178 200.392 109.193 215.345 116.673 231.017C115.814 233.15 114.922 235.236 114.013 237.27C105.042 226.088 91.0023 215.603 69.9932 206.604C23.1008 186.517 -11.7731 192.328 -38.603 196.799L-38.607 196.799L-38.6144 196.801C-41.1009 197.215 -43.5184 197.618 -45.8699 197.987C-59.7432 200.168 -71.2519 201.177 -81.1473 196.666C-91.0323 192.16 -99.3803 182.108 -106.806 161.977L-107.365 162.157C-99.9227 182.335 -91.5051 192.558 -81.4083 197.16C-71.322 201.758 -59.6325 200.708 -45.7722 198.53C-43.4149 198.16 -40.9928 197.756 -38.5025 197.341C-11.6872 192.874 23.0249 187.091 69.745 207.104C90.8394 216.14 104.851 226.661 113.747 237.861C112.432 240.777 111.085 243.581 109.759 246.251C101.337 239.047 90.3142 232.279 76.1019 226.191C29.2095 206.105 -5.6644 211.916 -32.4942 216.387L-32.4982 216.387L-32.5057 216.388C-34.9922 216.803 -37.4096 217.206 -39.7611 217.575C-53.6344 219.755 -65.1431 220.764 -75.0386 216.254C-84.9236 211.748 -93.2716 201.696 -100.697 181.565L-101.257 181.745C-93.8139 201.923 -85.3964 212.146 -75.2996 216.748C-65.2132 221.346 -53.5238 220.296 -39.6635 218.118C-37.3065 217.747 -34.8846 217.344 -32.3947 216.929L-32.3938 216.929C-5.57847 212.462 29.1337 206.679 75.8538 226.692C90.0948 232.792 101.107 239.569 109.498 246.775C109.288 247.194 109.08 247.61 108.872 248.022L109.408 248.255C109.589 247.896 109.771 247.534 109.953 247.169C110.25 247.428 110.544 247.687 110.834 247.947C108.78 252.742 106.596 257.27 104.492 261.444L105.028 261.677C107.102 257.561 109.259 253.094 111.294 248.361C112.176 249.161 113.027 249.967 113.848 250.777C110.748 260.262 106.624 269.094 102.772 276.738L103.308 276.971C107.12 269.406 111.212 260.655 114.314 251.241C115.595 252.526 116.799 253.823 117.931 255.13C115.094 269.336 109.04 282.674 103.538 293.591L104.074 293.824C109.516 283.026 115.527 269.809 118.418 255.698C119.865 257.403 121.189 259.126 122.398 260.863C121.502 279.592 113.52 297.618 106.45 311.646L106.986 311.879C113.959 298.043 121.866 280.237 122.947 261.666C124.325 263.71 125.545 265.773 126.618 267.85C126.678 268.309 126.733 268.769 126.783 269.228C129.206 291.641 119.525 313.934 111.131 330.589L111.666 330.822C120.032 314.222 129.743 291.907 127.397 269.412C130.468 275.804 132.189 282.318 132.891 288.816C135.315 311.229 125.633 333.522 117.239 350.177L117.775 350.41ZM118.224 231.731C118.375 230.503 118.498 229.27 118.591 228.033C118.578 227.958 118.564 227.883 118.551 227.807C118.399 228.21 118.247 228.611 118.093 229.011C117.89 229.783 117.679 230.551 117.46 231.316C117.62 231.659 117.775 232.002 117.927 232.345C118.026 232.141 118.125 231.936 118.224 231.731ZM117.591 233.037C117.467 232.75 117.34 232.463 117.211 232.177C116.564 234.373 115.857 236.539 115.105 238.667C115.634 239.362 116.144 240.06 116.635 240.76C117.153 238.481 117.592 236.177 117.936 233.854L117.892 233.748C117.376 234.8 116.861 235.832 116.352 236.843L115.816 236.61C116.403 235.446 116.996 234.254 117.591 233.037ZM118.801 231.878C118.722 232.516 118.636 233.152 118.543 233.787C118.882 234.613 119.201 235.439 119.499 236.268C119.437 234.923 119.335 233.577 119.19 232.23C119.156 231.918 119.12 231.606 119.082 231.294L118.937 231.597L118.801 231.878ZM114.422 237.785C114.938 236.638 115.448 235.473 115.951 234.292C115.545 235.577 115.12 236.851 114.678 238.112C114.593 238.003 114.508 237.894 114.422 237.785ZM110.215 246.643C111.523 244.015 112.853 241.253 114.155 238.379C114.253 238.506 114.351 238.633 114.449 238.76C113.397 241.715 112.257 244.599 111.07 247.394C110.788 247.143 110.503 246.893 110.215 246.643ZM111.531 247.807C112.398 248.59 113.236 249.377 114.045 250.169C114.954 247.339 115.77 244.452 116.459 241.521C115.951 240.784 115.423 240.05 114.873 239.318C113.828 242.225 112.701 245.06 111.531 247.807ZM117.089 241.415C117.588 239.274 118.018 237.109 118.368 234.927C118.803 236.039 119.2 237.153 119.56 238.269C119.595 240.51 119.521 242.744 119.351 244.967C118.648 243.777 117.895 242.593 117.089 241.415ZM114.513 250.632C115.409 247.866 116.218 245.045 116.908 242.181C117.753 243.441 118.539 244.707 119.267 245.98C119.013 248.816 118.605 251.632 118.071 254.416C116.955 253.144 115.77 251.882 114.513 250.632ZM118.562 254.981C119.963 256.61 121.253 258.255 122.437 259.914C122.529 257.271 122.478 254.615 122.26 251.955C121.526 250.257 120.699 248.566 119.775 246.884C119.501 249.607 119.088 252.31 118.562 254.981ZM119.871 245.863C120.678 247.282 121.415 248.709 122.086 250.142C121.721 246.836 121.092 243.526 120.155 240.231C120.132 242.115 120.035 243.993 119.871 245.863ZM122.997 260.71C123.103 258.373 123.099 256.024 122.97 253.67C124.605 257.804 125.71 261.977 126.373 266.152C125.365 264.325 124.242 262.51 122.997 260.71ZM141.194 165.673C143.634 188.249 133.884 210.664 125.489 227.323L124.953 227.09C133.347 210.435 143.028 188.142 140.605 165.729C138.185 143.351 123.688 120.791 83.5673 103.605C36.8472 83.5917 2.13507 89.3747 -24.6803 93.8421C-27.1705 94.257 -29.5926 94.6606 -31.95 95.031C-45.8102 97.2093 -57.4997 98.259 -67.586 93.6614C-77.6828 89.0591 -86.1004 78.8357 -93.5432 58.6576L-92.9836 58.4782C-85.558 78.6094 -77.2101 88.6612 -67.325 93.167C-57.4296 97.6776 -45.9209 96.6685 -32.0476 94.4882C-29.6925 94.1181 -27.2712 93.7146 -24.7806 93.2996C2.04921 88.8289 36.9231 83.0177 83.8155 103.105C124.086 120.355 138.749 143.064 141.194 165.673ZM136.296 219.365C144.691 202.706 154.441 180.292 152 157.716C149.556 135.106 134.893 112.397 94.6224 95.1469C47.73 75.0601 12.8561 80.8713 -13.9737 85.342L-13.9772 85.3426C-16.4665 85.7574 -18.8866 86.1607 -21.2406 86.5306C-35.1139 88.7109 -46.6226 89.7199 -56.5181 85.2094C-66.4031 80.7035 -74.7511 70.6517 -82.1766 50.5205L-82.7363 50.7C-75.2934 70.8781 -66.8759 81.1014 -56.7791 85.7038C-46.6927 90.3014 -35.0033 89.2517 -21.143 87.0734C-18.7863 86.7031 -16.3649 86.2997 -13.8754 85.8849L-13.8733 85.8845C12.942 81.4171 47.6542 75.634 94.3743 95.647C134.495 112.833 148.992 135.393 151.412 157.772C153.835 180.184 144.154 202.477 135.76 219.132L136.296 219.365ZM163.952 150.893C166.393 173.469 156.643 195.883 148.247 212.542L147.712 212.309C156.106 195.654 165.787 173.361 163.364 150.949C160.944 128.57 146.447 106.01 106.326 88.8239C59.606 68.8109 24.8939 74.594 -1.92145 79.0614C-4.41168 79.4763 -6.83382 79.8798 -9.19114 80.2503C-23.0514 82.4285 -34.7409 83.4782 -44.8272 78.8806C-54.924 74.2783 -63.3416 64.055 -70.7844 43.8768L-70.2247 43.6974C-62.7992 63.8286 -54.4512 73.8804 -44.5662 78.3862C-34.6708 82.8968 -23.162 81.8877 -9.28877 79.7074C-6.93366 79.3373 -4.51241 78.9339 -2.02186 78.5189C24.808 74.0481 59.6819 68.237 106.574 88.3238C146.845 105.574 161.508 128.283 163.952 150.893ZM160.887 206.43C169.283 189.771 179.033 167.356 176.592 144.78C174.147 122.17 159.485 99.4616 119.214 82.2111C72.3215 62.1243 37.4476 67.9355 10.6178 72.4062L10.6116 72.4073C8.12318 72.8219 5.70403 73.225 3.3509 73.5948C-10.5224 75.7751 -22.0311 76.7841 -31.9266 72.2736C-41.8116 67.7677 -50.1595 57.716 -57.5851 37.5847L-58.1447 37.7642C-50.7019 57.9423 -42.2844 68.1656 -32.1875 72.768C-22.1012 77.3656 -10.4118 76.3159 3.44853 74.1376C5.80519 73.7673 8.22665 73.3639 10.7162 72.9491L10.7182 72.9488C37.5336 68.4813 72.2457 62.6983 118.966 82.7112C159.087 99.8973 173.584 122.457 176.003 144.836C178.427 167.248 168.745 189.541 160.351 206.196L160.887 206.43ZM189.562 139.016C192.003 161.592 182.253 184.007 173.857 200.666L173.321 200.432C181.715 183.777 191.397 161.484 188.973 139.072C186.554 116.693 172.056 94.1333 131.936 76.9472C85.2157 56.9342 50.5035 62.7173 23.6882 67.1847C21.1979 67.5996 18.7758 68.0032 16.4185 68.3736C2.55818 70.5518 -9.13122 71.6016 -19.2176 67.004C-29.3144 62.4016 -37.7319 52.1783 -45.1748 32.0002L-44.6151 31.8207C-37.1896 51.9519 -28.8416 62.0037 -18.9566 66.5096C-9.06114 71.0201 2.44758 70.0111 16.3208 67.8308C18.676 67.4607 21.0972 67.0573 23.5878 66.6422C50.4176 62.1715 85.2915 56.3603 132.184 76.4471C172.455 93.6976 187.117 116.406 189.562 139.016ZM186.88 194.961C195.276 178.302 205.026 155.887 202.585 133.311C200.141 110.701 185.478 87.9927 145.207 70.7422C98.3149 50.6554 63.441 56.4666 36.6112 60.9373C34.1206 61.3524 31.6993 61.7558 29.3443 62.1259C15.471 64.3062 3.96226 65.3153 -5.93323 60.8047C-15.8182 56.2989 -24.1662 46.247 -31.5917 26.1158L-32.1514 26.2953C-24.7085 46.4734 -16.291 56.6967 -6.19422 61.2991C3.89216 65.8967 15.5816 64.847 29.4419 62.6687C31.7992 62.2983 34.2213 61.8947 36.7116 61.4798C63.5269 57.0124 98.239 51.2294 144.959 71.2423C185.08 88.4284 199.577 110.989 201.997 133.367C204.42 155.779 194.739 178.072 186.345 194.728L186.88 194.961ZM215.461 127.446C217.902 150.022 208.152 172.437 199.756 189.096L199.221 188.863C207.615 172.208 217.296 149.915 214.873 127.502C212.453 105.124 197.956 82.5636 157.835 65.3775C111.115 45.3646 76.4029 51.1476 49.5876 55.6151L49.5855 55.6154C47.096 56.0302 44.6746 56.4336 42.3179 56.8039C28.4576 58.9822 16.7682 60.0319 6.68182 55.4343C-3.41502 50.8319 -11.8325 40.6086 -19.2754 20.4305L-18.7157 20.251C-11.2902 40.3822 -2.94222 50.434 6.9428 54.9399C16.8383 59.4504 28.347 58.4414 42.2203 56.2611C44.5734 55.8913 46.9925 55.4882 49.4809 55.0736L49.4872 55.0725C76.317 50.6018 111.191 44.7906 158.083 64.8774C198.354 82.1279 213.017 104.837 215.461 127.446ZM212.329 182.912C220.724 166.254 230.474 143.839 228.033 121.263C225.589 98.6532 210.926 75.9445 170.655 58.6941C123.763 38.6073 88.8891 44.4184 62.0593 48.8892L62.0544 48.89L62.0525 48.8903C59.5643 49.3049 57.1454 49.708 54.7924 50.0777C40.9191 52.258 29.4104 53.2671 19.5149 48.7565C9.62991 44.2507 1.28192 34.1989 -6.14361 14.0677L-6.70328 14.2471C0.739558 34.4252 9.15711 44.6486 19.2539 49.2509C29.3403 53.8485 41.0297 52.7988 54.89 50.6206C57.2462 50.2502 59.6672 49.8469 62.1562 49.4322L62.1597 49.4317C88.975 44.9642 123.687 39.1812 170.407 59.1942C210.528 76.3802 225.025 98.9404 227.445 121.319C229.868 143.731 220.187 166.024 211.793 182.679L212.329 182.912ZM240.192 114.652C242.633 137.227 232.883 159.642 224.487 176.301L223.951 176.068C232.345 159.413 242.026 137.12 239.603 114.708C237.183 92.329 222.686 69.7689 182.565 52.5828C135.845 32.5698 101.133 38.3529 74.3179 42.8203L74.3169 42.8205L74.309 42.8218C71.8219 43.2361 69.4027 43.6392 67.0482 44.0092C53.1879 46.1874 41.4985 47.2372 31.4121 42.6396C21.3153 38.0372 12.8978 27.8139 5.45492 7.63577L6.01458 7.4563C13.4401 27.5875 21.7881 37.6393 31.6731 42.1451C41.5686 46.6557 53.0773 45.6467 66.9506 43.4664C69.3057 43.0963 71.7269 42.6928 74.2175 42.2778C101.047 37.8071 135.921 31.9959 182.814 52.0827C223.085 69.3331 237.747 92.0418 240.192 114.652ZM236.154 169.19C244.549 152.531 254.3 130.116 251.859 107.54C249.414 84.9303 234.752 62.2216 194.481 44.9712C147.588 24.8844 112.714 30.6956 85.8844 35.1663C83.3938 35.5813 80.9726 35.9848 78.6175 36.3549C64.7442 38.5352 53.2355 39.5442 43.34 35.0336C33.455 30.5278 25.107 20.476 17.6815 0.344811L17.1218 0.524278C24.5647 20.7024 32.9822 30.9257 43.079 35.5281C53.1654 40.1257 64.8548 39.0759 78.7151 36.8977C81.0724 36.5272 83.4945 36.1237 85.9848 35.7088C112.8 31.2414 147.512 25.4583 194.232 45.4713C234.353 62.6574 248.85 85.2175 251.27 107.596C253.693 130.008 244.012 152.301 235.618 168.957L236.154 169.19Z" fill="url(#paint0_radial_43_2793)" fill-opacity="0.58"/>
<path fill-rule="evenodd" clip-rule="evenodd" d="M117.775 350.41C126.171 333.751 135.921 311.336 133.48 288.76C132.716 281.69 130.757 274.611 127.194 267.692C126.492 262.378 125.1 257.066 122.843 251.827C122.799 251.294 122.748 250.762 122.691 250.229C122.256 246.207 121.434 242.181 120.15 238.183C120.116 236.184 119.995 234.18 119.779 232.174C119.711 231.553 119.635 230.932 119.549 230.312C127.002 214.557 134.191 194.937 132.057 175.193C129.612 152.584 114.95 129.875 74.6787 112.624C27.7864 92.5377 -7.08753 98.3488 -33.9174 102.82C-36.4079 103.235 -38.8292 103.638 -41.1843 104.008C-55.0576 106.188 -66.5663 107.197 -76.4618 102.687C-86.3468 98.1811 -94.6947 88.1293 -102.12 67.9981L-102.68 68.1775C-95.2371 88.3556 -86.8196 98.579 -76.7227 103.181C-66.6364 107.779 -54.947 106.729 -41.0867 104.551C-38.7294 104.18 -36.3072 103.777 -33.817 103.362C-7.00165 98.8946 27.7105 93.1116 74.4306 113.125C114.551 130.311 129.048 152.871 131.468 175.249C133.551 194.511 126.693 213.684 119.396 229.266C119.33 228.846 119.261 228.425 119.186 228.005C119.243 227.238 119.289 226.469 119.323 225.7C123.678 213.521 126.571 200.092 125.113 186.606C122.668 163.996 108.006 141.287 67.7345 124.037C20.8421 103.95 -14.0318 109.761 -40.8616 114.232C-43.3522 114.647 -45.7734 115.051 -48.1285 115.421C-62.0018 117.601 -73.5105 118.61 -83.406 114.099C-93.291 109.594 -101.639 99.5418 -109.065 79.4106L-109.624 79.5901C-102.181 99.7682 -93.7638 109.992 -83.667 114.594C-73.5806 119.191 -61.8912 118.142 -48.0309 115.964C-45.6736 115.593 -43.2514 115.19 -40.7612 114.775C-13.9459 110.307 20.7663 104.524 67.4864 124.537C107.607 141.723 122.104 164.283 124.524 186.662C125.901 199.401 123.368 212.102 119.383 223.75L119.385 223.65L119.387 223.475C120.945 215.84 121.588 207.944 120.732 200.027C118.288 177.418 103.625 154.709 63.3544 137.459C16.462 117.372 -18.4119 123.183 -45.2417 127.654L-45.248 127.655C-47.7363 128.069 -50.1555 128.472 -52.5086 128.842C-66.3819 131.023 -77.8906 132.032 -87.7861 127.521C-97.6711 123.015 -106.019 112.963 -113.445 92.8322L-114.004 93.0116C-106.561 113.19 -98.1439 123.413 -88.0471 128.015C-77.9607 132.613 -66.2713 131.563 -52.411 129.385C-50.0537 129.015 -47.6315 128.611 -45.1413 128.196C-18.3259 123.729 16.3862 117.946 63.1063 137.959C103.227 155.145 117.724 177.705 120.144 200.083C120.883 206.921 120.496 213.748 119.362 220.406C119.311 218.714 119.196 217.018 119.013 215.321C116.568 192.712 101.906 170.003 61.6345 152.752C14.7421 132.666 -20.1318 138.477 -46.9616 142.947L-46.9651 142.948C-49.4544 143.363 -51.8745 143.766 -54.2285 144.136C-68.1018 146.316 -79.6105 147.325 -89.506 142.815C-99.391 138.309 -107.739 128.257 -115.165 108.126L-115.724 108.305C-108.281 128.484 -99.8638 138.707 -89.767 143.309C-79.6806 147.907 -67.9912 146.857 -54.1309 144.679C-51.7742 144.309 -49.3528 143.905 -46.8633 143.49L-46.8612 143.49C-20.0459 139.023 14.6663 133.24 61.3863 153.253C101.507 170.439 116.004 192.999 118.424 215.377C118.714 218.063 118.831 220.748 118.797 223.421C118.706 223.863 118.613 224.303 118.517 224.743C113.812 204.652 98.2571 184.965 62.4005 169.605C15.5081 149.519 -19.3658 155.33 -46.1956 159.801L-46.2076 159.803L-46.218 159.804L-46.2345 159.807L-46.2384 159.808C-48.7139 160.22 -51.1209 160.621 -53.4625 160.989C-67.3358 163.169 -78.8445 164.178 -88.74 159.668C-98.625 155.162 -106.973 145.11 -114.398 124.979L-114.958 125.159C-107.515 145.337 -99.0978 155.56 -89.001 160.162C-78.9146 164.76 -67.2252 163.71 -53.3649 161.532C-51.0076 161.161 -48.5854 160.758 -46.0952 160.343C-19.2798 155.876 15.4323 150.093 62.1524 170.106C98.6024 185.719 113.903 205.769 118.212 226.088C117.996 227.013 117.767 227.934 117.526 228.85C117.342 229.33 117.155 229.807 116.967 230.281C109.33 214.662 93.6703 199.808 65.3126 187.661C18.4202 167.574 -16.4537 173.385 -43.2835 177.856C-45.7741 178.271 -48.1953 178.674 -50.5504 179.044C-64.4237 181.224 -75.9325 182.234 -85.8279 177.723C-95.7129 173.217 -104.061 163.165 -111.486 143.034L-112.046 143.214C-104.603 163.392 -96.1857 173.615 -86.0889 178.217C-76.0026 182.815 -64.3131 181.765 -50.4528 179.587C-48.0955 179.217 -45.6734 178.813 -43.1831 178.398C-16.3678 173.931 18.3443 168.148 65.0644 188.161C93.6178 200.392 109.193 215.345 116.673 231.017C115.814 233.15 114.922 235.236 114.013 237.27C105.042 226.088 91.0023 215.603 69.9932 206.604C23.1008 186.517 -11.7731 192.328 -38.603 196.799L-38.607 196.799L-38.6144 196.801C-41.1009 197.215 -43.5184 197.618 -45.8699 197.987C-59.7432 200.168 -71.2519 201.177 -81.1473 196.666C-91.0323 192.16 -99.3803 182.108 -106.806 161.977L-107.365 162.157C-99.9227 182.335 -91.5051 192.558 -81.4083 197.16C-71.322 201.758 -59.6325 200.708 -45.7722 198.53C-43.4149 198.16 -40.9928 197.756 -38.5025 197.341C-11.6872 192.874 23.0249 187.091 69.745 207.104C90.8394 216.14 104.851 226.661 113.747 237.861C112.432 240.777 111.085 243.581 109.759 246.251C101.337 239.047 90.3142 232.279 76.1019 226.191C29.2095 206.105 -5.6644 211.916 -32.4942 216.387L-32.4982 216.387L-32.5057 216.388C-34.9922 216.803 -37.4096 217.206 -39.7611 217.575C-53.6344 219.755 -65.1431 220.764 -75.0386 216.254C-84.9236 211.748 -93.2716 201.696 -100.697 181.565L-101.257 181.745C-93.8139 201.923 -85.3964 212.146 -75.2996 216.748C-65.2132 221.346 -53.5238 220.296 -39.6635 218.118C-37.3065 217.747 -34.8846 217.344 -32.3947 216.929L-32.3938 216.929C-5.57847 212.462 29.1337 206.679 75.8538 226.692C90.0948 232.792 101.107 239.569 109.498 246.775C109.288 247.194 109.08 247.61 108.872 248.022L109.408 248.255C109.589 247.896 109.771 247.534 109.953 247.169C110.25 247.428 110.544 247.687 110.834 247.947C108.78 252.742 106.596 257.27 104.492 261.444L105.028 261.677C107.102 257.561 109.259 253.094 111.294 248.361C112.176 249.161 113.027 249.967 113.848 250.777C110.748 260.262 106.624 269.094 102.772 276.738L103.308 276.971C107.12 269.406 111.212 260.655 114.314 251.241C115.595 252.526 116.799 253.823 117.931 255.13C115.094 269.336 109.04 282.674 103.538 293.591L104.074 293.824C109.516 283.026 115.527 269.809 118.418 255.698C119.865 257.403 121.189 259.126 122.398 260.863C121.502 279.592 113.52 297.618 106.45 311.646L106.986 311.879C113.959 298.043 121.866 280.237 122.947 261.666C124.325 263.71 125.545 265.773 126.618 267.85C126.678 268.309 126.733 268.769 126.783 269.228C129.206 291.641 119.525 313.934 111.131 330.589L111.666 330.822C120.032 314.222 129.743 291.907 127.397 269.412C130.468 275.804 132.189 282.318 132.891 288.816C135.315 311.229 125.633 333.522 117.239 350.177L117.775 350.41ZM118.224 231.731C118.375 230.503 118.498 229.27 118.591 228.033C118.578 227.958 118.564 227.883 118.551 227.807C118.399 228.21 118.247 228.611 118.093 229.011C117.89 229.783 117.679 230.551 117.46 231.316C117.62 231.659 117.775 232.002 117.927 232.345C118.026 232.141 118.125 231.936 118.224 231.731ZM117.591 233.037C117.467 232.75 117.34 232.463 117.211 232.177C116.564 234.373 115.857 236.539 115.105 238.667C115.634 239.362 116.144 240.06 116.635 240.76C117.153 238.481 117.592 236.177 117.936 233.854L117.892 233.748C117.376 234.8 116.861 235.832 116.352 236.843L115.816 236.61C116.403 235.446 116.996 234.254 117.591 233.037ZM118.801 231.878C118.722 232.516 118.636 233.152 118.543 233.787C118.882 234.613 119.201 235.439 119.499 236.268C119.437 234.923 119.335 233.577 119.19 232.23C119.156 231.918 119.12 231.606 119.082 231.294L118.937 231.597L118.801 231.878ZM114.422 237.785C114.938 236.638 115.448 235.473 115.951 234.292C115.545 235.577 115.12 236.851 114.678 238.112C114.593 238.003 114.508 237.894 114.422 237.785ZM110.215 246.643C111.523 244.015 112.853 241.253 114.155 238.379C114.253 238.506 114.351 238.633 114.449 238.76C113.397 241.715 112.257 244.599 111.07 247.394C110.788 247.143 110.503 246.893 110.215 246.643ZM111.531 247.807C112.398 248.59 113.236 249.377 114.045 250.169C114.954 247.339 115.77 244.452 116.459 241.521C115.951 240.784 115.423 240.05 114.873 239.318C113.828 242.225 112.701 245.06 111.531 247.807ZM117.089 241.415C117.588 239.274 118.018 237.109 118.368 234.927C118.803 236.039 119.2 237.153 119.56 238.269C119.595 240.51 119.521 242.744 119.351 244.967C118.648 243.777 117.895 242.593 117.089 241.415ZM114.513 250.632C115.409 247.866 116.218 245.045 116.908 242.181C117.753 243.441 118.539 244.707 119.267 245.98C119.013 248.816 118.605 251.632 118.071 254.416C116.955 253.144 115.77 251.882 114.513 250.632ZM118.562 254.981C119.963 256.61 121.253 258.255 122.437 259.914C122.529 257.271 122.478 254.615 122.26 251.955C121.526 250.257 120.699 248.566 119.775 246.884C119.501 249.607 119.088 252.31 118.562 254.981ZM119.871 245.863C120.678 247.282 121.415 248.709 122.086 250.142C121.721 246.836 121.092 243.526 120.155 240.231C120.132 242.115 120.035 243.993 119.871 245.863ZM122.997 260.71C123.103 258.373 123.099 256.024 122.97 253.67C124.605 257.804 125.71 261.977 126.373 266.152C125.365 264.325 124.242 262.51 122.997 260.71ZM141.194 165.673C143.634 188.249 133.884 210.664 125.489 227.323L124.953 227.09C133.347 210.435 143.028 188.142 140.605 165.729C138.185 143.351 123.688 120.791 83.5673 103.605C36.8472 83.5917 2.13507 89.3747 -24.6803 93.8421C-27.1705 94.257 -29.5926 94.6606 -31.95 95.031C-45.8102 97.2093 -57.4997 98.259 -67.586 93.6614C-77.6828 89.0591 -86.1004 78.8357 -93.5432 58.6576L-92.9836 58.4782C-85.558 78.6094 -77.2101 88.6612 -67.325 93.167C-57.4296 97.6776 -45.9209 96.6685 -32.0476 94.4882C-29.6925 94.1181 -27.2712 93.7146 -24.7806 93.2996C2.04921 88.8289 36.9231 83.0177 83.8155 103.105C124.086 120.355 138.749 143.064 141.194 165.673ZM136.296 219.365C144.691 202.706 154.441 180.292 152 157.716C149.556 135.106 134.893 112.397 94.6224 95.1469C47.73 75.0601 12.8561 80.8713 -13.9737 85.342L-13.9772 85.3426C-16.4665 85.7574 -18.8866 86.1607 -21.2406 86.5306C-35.1139 88.7109 -46.6226 89.7199 -56.5181 85.2094C-66.4031 80.7035 -74.7511 70.6517 -82.1766 50.5205L-82.7363 50.7C-75.2934 70.8781 -66.8759 81.1014 -56.7791 85.7038C-46.6927 90.3014 -35.0033 89.2517 -21.143 87.0734C-18.7863 86.7031 -16.3649 86.2997 -13.8754 85.8849L-13.8733 85.8845C12.942 81.4171 47.6542 75.634 94.3743 95.647C134.495 112.833 148.992 135.393 151.412 157.772C153.835 180.184 144.154 202.477 135.76 219.132L136.296 219.365ZM163.952 150.893C166.393 173.469 156.643 195.883 148.247 212.542L147.712 212.309C156.106 195.654 165.787 173.361 163.364 150.949C160.944 128.57 146.447 106.01 106.326 88.8239C59.606 68.8109 24.8939 74.594 -1.92145 79.0614C-4.41168 79.4763 -6.83382 79.8798 -9.19114 80.2503C-23.0514 82.4285 -34.7409 83.4782 -44.8272 78.8806C-54.924 74.2783 -63.3416 64.055 -70.7844 43.8768L-70.2247 43.6974C-62.7992 63.8286 -54.4512 73.8804 -44.5662 78.3862C-34.6708 82.8968 -23.162 81.8877 -9.28877 79.7074C-6.93366 79.3373 -4.51241 78.9339 -2.02186 78.5189C24.808 74.0481 59.6819 68.237 106.574 88.3238C146.845 105.574 161.508 128.283 163.952 150.893ZM160.887 206.43C169.283 189.771 179.033 167.356 176.592 144.78C174.147 122.17 159.485 99.4616 119.214 82.2111C72.3215 62.1243 37.4476 67.9355 10.6178 72.4062L10.6116 72.4073C8.12318 72.8219 5.70403 73.225 3.3509 73.5948C-10.5224 75.7751 -22.0311 76.7841 -31.9266 72.2736C-41.8116 67.7677 -50.1595 57.716 -57.5851 37.5847L-58.1447 37.7642C-50.7019 57.9423 -42.2844 68.1656 -32.1875 72.768C-22.1012 77.3656 -10.4118 76.3159 3.44853 74.1376C5.80519 73.7673 8.22665 73.3639 10.7162 72.9491L10.7182 72.9488C37.5336 68.4813 72.2457 62.6983 118.966 82.7112C159.087 99.8973 173.584 122.457 176.003 144.836C178.427 167.248 168.745 189.541 160.351 206.196L160.887 206.43ZM189.562 139.016C192.003 161.592 182.253 184.007 173.857 200.666L173.321 200.432C181.715 183.777 191.397 161.484 188.973 139.072C186.554 116.693 172.056 94.1333 131.936 76.9472C85.2157 56.9342 50.5035 62.7173 23.6882 67.1847C21.1979 67.5996 18.7758 68.0032 16.4185 68.3736C2.55818 70.5518 -9.13122 71.6016 -19.2176 67.004C-29.3144 62.4016 -37.7319 52.1783 -45.1748 32.0002L-44.6151 31.8207C-37.1896 51.9519 -28.8416 62.0037 -18.9566 66.5096C-9.06114 71.0201 2.44758 70.0111 16.3208 67.8308C18.676 67.4607 21.0972 67.0573 23.5878 66.6422C50.4176 62.1715 85.2915 56.3603 132.184 76.4471C172.455 93.6976 187.117 116.406 189.562 139.016ZM186.88 194.961C195.276 178.302 205.026 155.887 202.585 133.311C200.141 110.701 185.478 87.9927 145.207 70.7422C98.3149 50.6554 63.441 56.4666 36.6112 60.9373C34.1206 61.3524 31.6993 61.7558 29.3443 62.1259C15.471 64.3062 3.96226 65.3153 -5.93323 60.8047C-15.8182 56.2989 -24.1662 46.247 -31.5917 26.1158L-32.1514 26.2953C-24.7085 46.4734 -16.291 56.6967 -6.19422 61.2991C3.89216 65.8967 15.5816 64.847 29.4419 62.6687C31.7992 62.2983 34.2213 61.8947 36.7116 61.4798C63.5269 57.0124 98.239 51.2294 144.959 71.2423C185.08 88.4284 199.577 110.989 201.997 133.367C204.42 155.779 194.739 178.072 186.345 194.728L186.88 194.961ZM215.461 127.446C217.902 150.022 208.152 172.437 199.756 189.096L199.221 188.863C207.615 172.208 217.296 149.915 214.873 127.502C212.453 105.124 197.956 82.5636 157.835 65.3775C111.115 45.3646 76.4029 51.1476 49.5876 55.6151L49.5855 55.6154C47.096 56.0302 44.6746 56.4336 42.3179 56.8039C28.4576 58.9822 16.7682 60.0319 6.68182 55.4343C-3.41502 50.8319 -11.8325 40.6086 -19.2754 20.4305L-18.7157 20.251C-11.2902 40.3822 -2.94222 50.434 6.9428 54.9399C16.8383 59.4504 28.347 58.4414 42.2203 56.2611C44.5734 55.8913 46.9925 55.4882 49.4809 55.0736L49.4872 55.0725C76.317 50.6018 111.191 44.7906 158.083 64.8774C198.354 82.1279 213.017 104.837 215.461 127.446ZM212.329 182.912C220.724 166.254 230.474 143.839 228.033 121.263C225.589 98.6532 210.926 75.9445 170.655 58.6941C123.763 38.6073 88.8891 44.4184 62.0593 48.8892L62.0544 48.89L62.0525 48.8903C59.5643 49.3049 57.1454 49.708 54.7924 50.0777C40.9191 52.258 29.4104 53.2671 19.5149 48.7565C9.62991 44.2507 1.28192 34.1989 -6.14361 14.0677L-6.70328 14.2471C0.739558 34.4252 9.15711 44.6486 19.2539 49.2509C29.3403 53.8485 41.0297 52.7988 54.89 50.6206C57.2462 50.2502 59.6672 49.8469 62.1562 49.4322L62.1597 49.4317C88.975 44.9642 123.687 39.1812 170.407 59.1942C210.528 76.3802 225.025 98.9404 227.445 121.319C229.868 143.731 220.187 166.024 211.793 182.679L212.329 182.912ZM240.192 114.652C242.633 137.227 232.883 159.642 224.487 176.301L223.951 176.068C232.345 159.413 242.026 137.12 239.603 114.708C237.183 92.329 222.686 69.7689 182.565 52.5828C135.845 32.5698 101.133 38.3529 74.3179 42.8203L74.3169 42.8205L74.309 42.8218C71.8219 43.2361 69.4027 43.6392 67.0482 44.0092C53.1879 46.1874 41.4985 47.2372 31.4121 42.6396C21.3153 38.0372 12.8978 27.8139 5.45492 7.63577L6.01458 7.4563C13.4401 27.5875 21.7881 37.6393 31.6731 42.1451C41.5686 46.6557 53.0773 45.6467 66.9506 43.4664C69.3057 43.0963 71.7269 42.6928 74.2175 42.2778C101.047 37.8071 135.921 31.9959 182.814 52.0827C223.085 69.3331 237.747 92.0418 240.192 114.652ZM236.154 169.19C244.549 152.531 254.3 130.116 251.859 107.54C249.414 84.9303 234.752 62.2216 194.481 44.9712C147.588 24.8844 112.714 30.6956 85.8844 35.1663C83.3938 35.5813 80.9726 35.9848 78.6175 36.3549C64.7442 38.5352 53.2355 39.5442 43.34 35.0336C33.455 30.5278 25.107 20.476 17.6815 0.344811L17.1218 0.524278C24.5647 20.7024 32.9822 30.9257 43.079 35.5281C53.1654 40.1257 64.8548 39.0759 78.7151 36.8977C81.0724 36.5272 83.4945 36.1237 85.9848 35.7088C112.8 31.2414 147.512 25.4583 194.232 45.4713C234.353 62.6574 248.85 85.2175 251.27 107.596C253.693 130.008 244.012 152.301 235.618 168.957L236.154 169.19Z" fill="#98855A" fill-opacity="0.5"/>
<defs>
<radialGradient id="paint0_radial_43_2793" cx="0" cy="0" r="1" gradientUnits="userSpaceOnUse" gradientTransform="translate(95.3241 129.407) rotate(-149.07) scale(183.673 161.677)">
<stop stop-color="white"/>
<stop offset="1" stop-color="#1E1E1E" stop-opacity="0"/>
<stop offset="1" stop-color="#0E0E35" stop-opacity="0"/>
<stop offset="1" stop-color="white" stop-opacity="0"/>
</radialGradient>
</defs>
</svg>
