<svg width="274" height="274" viewBox="0 0 274 274" fill="none" xmlns="http://www.w3.org/2000/svg">
<path d="M48.1641 140.211C48.437 140.255 48.7099 140.299 48.9912 140.344C49.9442 140.467 50.8288 140.502 51.7879 140.486C52.1168 140.482 52.4457 140.478 52.7846 140.475C53.1307 140.47 53.4768 140.466 53.8334 140.462C65.502 140.391 65.502 140.391 69.8285 144.45C72.0665 146.835 72.6262 149.357 72.5701 152.548C72.3903 155.867 70.9568 158.287 68.5962 160.566C65.6747 162.955 65.6747 162.955 64.2188 162.955C67.4309 170.073 67.4309 170.073 71.7716 176.529C72.2461 177.137 72.2461 177.137 72.2461 177.672C72.511 177.76 72.7759 177.848 73.0488 177.939C73.0488 178.116 73.0488 178.293 73.0488 178.475C73.3055 178.566 73.3055 178.566 73.5673 178.659C74.2777 178.963 74.9686 179.279 75.6577 179.629C75.9702 179.784 75.9702 179.784 76.289 179.943C76.7949 180.348 76.7949 180.348 77.0207 181.024C77.0625 181.686 77.0625 181.686 76.728 182.288C75.5908 183.425 73.7434 183.094 72.2461 183.107C71.9553 183.115 71.6646 183.123 71.365 183.131C68.6186 183.152 66.3249 182.582 64.2574 180.713C63.9512 180.348 63.9512 180.348 63.9512 179.812C63.7746 179.812 63.598 179.812 63.416 179.812C62.3655 177.959 61.4005 176.068 60.4528 174.161C60.3314 173.917 60.2101 173.673 60.0851 173.421C59.5774 172.398 59.0705 171.375 58.5645 170.351C58.1915 169.597 57.8171 168.844 57.4425 168.09C57.3288 167.859 57.2151 167.628 57.0979 167.39C56.9906 167.175 56.8834 166.959 56.7729 166.737C56.6797 166.549 56.5865 166.361 56.4905 166.166C56.1624 165.579 55.8348 165.065 55.3887 164.561C54.5329 164.431 54.5329 164.431 53.5992 164.494C53.2836 164.503 52.968 164.513 52.6429 164.523C52.4011 164.535 52.1593 164.548 51.9102 164.561C51.9034 166.446 51.8987 168.332 51.8955 170.218C51.8941 170.859 51.8923 171.501 51.89 172.143C51.8867 173.065 51.8852 173.986 51.884 174.908C51.8826 175.195 51.8813 175.483 51.8798 175.778C51.8798 176.046 51.8798 176.314 51.8798 176.59C51.8792 176.825 51.8786 177.06 51.878 177.303C51.8937 178.02 51.8937 178.02 52.1777 179.01C53.3256 179.275 54.4736 179.54 55.6562 179.812C55.7541 181.802 55.7541 181.802 55.3218 182.472C54.4137 183.023 53.4986 183.059 52.4548 183.071C52.1913 183.074 51.9279 183.078 51.6564 183.081C51.3735 183.083 51.0906 183.085 50.7991 183.087C50.5068 183.089 50.2145 183.092 49.9134 183.094C49.2956 183.097 48.6777 183.1 48.0599 183.102C47.1149 183.107 46.1703 183.119 45.2254 183.131C44.6249 183.133 44.0244 183.136 43.424 183.137C43.0004 183.144 43.0004 183.144 42.5682 183.152C41.3648 183.148 40.6141 183.143 39.5539 182.539C39.0664 181.953 39.0664 181.953 38.9493 181.033C39.3981 179.921 39.614 179.844 40.6552 179.344C40.8949 179.246 41.1346 179.148 41.3816 179.047C42.0898 178.769 42.0898 178.769 42.5449 177.939C42.6247 177.319 42.6247 177.319 42.6111 176.619C42.6122 176.347 42.6133 176.074 42.6145 175.794C42.613 175.495 42.6115 175.197 42.6099 174.889C42.6104 174.574 42.6109 174.26 42.6115 173.936C42.6123 173.073 42.6107 172.21 42.608 171.347C42.6056 170.444 42.6061 169.541 42.6062 168.638C42.606 167.122 42.6036 165.606 42.6 164.09C42.5958 162.337 42.5944 160.584 42.5946 158.83C42.5947 157.144 42.5934 155.458 42.5911 153.772C42.5902 153.054 42.5897 152.337 42.5896 151.619C42.589 150.617 42.5867 149.615 42.5838 148.613C42.5839 148.314 42.584 148.016 42.5842 147.708C42.583 147.436 42.5819 147.163 42.5807 146.883C42.5803 146.646 42.5798 146.409 42.5793 146.165C42.5687 145.517 42.5687 145.517 42.2773 144.76C41.7472 144.567 41.211 144.391 40.6719 144.225C39.9026 143.823 39.9026 143.823 39.334 143.422C39.334 143.245 39.334 143.069 39.334 142.887C39.1574 142.798 38.9808 142.71 38.7988 142.619C39.1332 141.642 39.2459 141.34 40.1367 140.746C40.9072 140.664 41.6553 140.609 42.4279 140.579C42.644 140.569 42.86 140.559 43.0827 140.549C47.3935 140.361 47.3935 140.361 48.1641 140.746C48.1641 140.569 48.1641 140.393 48.1641 140.211ZM51.6426 144.492C51.6174 145.009 51.6112 145.528 51.6122 146.045C51.6122 146.378 51.6122 146.71 51.6123 147.052C51.6136 147.417 51.615 147.782 51.6164 148.147C51.6169 148.519 51.6173 148.89 51.6176 149.262C51.6186 150.242 51.6212 151.221 51.6242 152.201C51.6269 153.2 51.6282 154.199 51.6295 155.198C51.6324 157.159 51.637 159.121 51.6426 161.082C51.8192 161.082 51.9958 161.082 52.1777 161.082C52.3102 160.95 52.3102 160.95 52.4453 160.814C52.4453 160.903 52.4453 160.991 52.4453 161.082C55.7221 161.236 58.4281 160.811 61.0078 158.674C62.6685 157.159 63.3678 155.545 63.4913 153.312C63.5812 150.493 63.4495 148.102 61.4405 145.948C60.5651 145.168 59.7699 144.76 58.5996 144.76C58.5996 144.671 58.5996 144.583 58.5996 144.492C57.1806 144.2 55.8099 144.185 54.3685 144.191C54.1355 144.19 53.9025 144.189 53.6625 144.188C53.3306 144.189 53.3306 144.189 52.992 144.189C52.6899 144.19 52.6899 144.19 52.3817 144.19C51.903 144.173 51.903 144.173 51.6426 144.492Z" fill="#99875A"/>
<path d="M186.084 151.887C186.485 151.887 186.485 151.887 186.893 151.887C187.456 151.887 188.02 151.89 188.583 151.894C189.442 151.901 190.302 151.9 191.162 151.898C191.71 151.9 192.258 151.902 192.807 151.904C193.063 151.904 193.319 151.903 193.582 151.903C194.896 151.917 195.973 152.005 197.205 152.52C197.422 153.389 197.422 153.389 197.473 154.393C196.595 155.38 195.469 155.792 194.262 156.266C194.262 157.149 194.262 158.032 194.262 158.941C194.438 159.03 194.615 159.118 194.797 159.209C194.997 159.785 194.997 159.785 195.182 160.53C195.284 160.926 195.284 160.926 195.388 161.33C195.458 161.601 195.528 161.873 195.6 162.152C195.736 162.655 195.875 163.157 196.018 163.657C196.079 163.876 196.14 164.095 196.203 164.32C196.357 164.88 196.357 164.88 196.938 165.096C197.137 165.641 197.137 165.641 197.322 166.333C197.562 167.186 197.814 167.999 198.175 168.808C198.543 169.645 198.543 169.645 198.666 170.145C198.838 170.825 199.084 171.453 199.346 172.103C199.44 172.338 199.533 172.574 199.63 172.817C199.832 173.375 199.832 173.375 200.148 173.658C200.825 171.973 201.501 170.288 202.177 168.602C202.407 168.029 202.637 167.456 202.867 166.883C203.198 166.058 203.529 165.233 203.859 164.408C203.962 164.153 204.064 163.898 204.17 163.635C205.394 160.704 205.394 160.704 205.232 157.604C204.851 156.967 204.851 156.967 204.43 156.533C204.43 156.357 204.43 156.18 204.43 155.998C204.183 155.92 204.183 155.92 203.931 155.841C203.715 155.772 203.499 155.702 203.276 155.63C202.954 155.528 202.954 155.528 202.627 155.423C202.021 155.195 202.021 155.195 201.219 154.66C201.102 153.874 201.102 153.874 201.219 153.055C201.866 152.317 202.456 152.194 203.396 152.132C203.846 152.119 204.297 152.111 204.748 152.106C204.989 152.1 205.23 152.095 205.479 152.089C205.989 152.078 206.499 152.07 207.01 152.062C207.782 152.051 208.554 152.035 209.326 152.017C215.985 151.879 215.985 151.879 216.944 152.615C217.273 153.055 217.273 153.055 217.283 153.851C217.006 154.66 217.006 154.66 216.336 155.168C215.931 155.364 215.931 155.364 215.517 155.563C215.111 155.765 215.111 155.765 214.697 155.971C214.488 156.068 214.278 156.165 214.063 156.266C214.673 158.75 215.534 161.129 216.421 163.524C216.709 164.308 216.997 165.092 217.285 165.876C217.355 166.066 217.424 166.255 217.496 166.45C218.095 168.083 218.675 169.722 219.227 171.372C219.481 172.112 219.654 172.56 220.217 173.123C220.302 172.911 220.387 172.699 220.474 172.48C220.599 172.168 220.724 171.856 220.852 171.534C220.922 171.36 220.991 171.186 221.063 171.006C221.531 169.834 222.003 168.664 222.478 167.495C224.781 162.292 224.781 162.292 226.104 156.801C225.422 155.764 224.485 155.476 223.349 155.118C222.893 154.928 222.893 154.928 222.625 154.393C222.575 153.59 222.575 153.59 222.625 152.787C224.013 151.4 227.245 151.949 229.114 151.934C229.367 151.931 229.62 151.927 229.881 151.924C231.317 151.922 232.506 152.045 233.863 152.52C234.081 153.239 234.081 153.239 234.131 154.125C233.562 154.811 233.562 154.811 232.793 155.463C230.786 157.274 230.018 159.791 229.047 162.253C228.913 162.591 228.778 162.928 228.644 163.266C228.336 164.041 228.028 164.816 227.72 165.591C226.725 168.102 225.726 170.611 224.726 173.119C224.368 174.016 224.013 174.912 223.657 175.809C223.433 176.371 223.209 176.932 222.985 177.494C222.883 177.75 222.782 178.006 222.677 178.27C221.068 182.294 221.068 182.294 220.231 182.809C219.501 183.094 218.876 183.104 218.093 183.107C217.82 183.112 217.547 183.116 217.266 183.121C216.327 183.006 215.891 182.786 215.133 182.221C214.712 181.482 214.712 181.482 214.355 180.581C214.289 180.417 214.223 180.253 214.155 180.084C213.941 179.549 213.734 179.012 213.527 178.475C213.385 178.11 213.242 177.745 213.1 177.38C212.656 176.237 212.221 175.09 211.788 173.943C211.496 173.171 211.203 172.399 210.91 171.627C210.804 171.346 210.804 171.346 210.696 171.06C210.336 170.113 209.968 169.172 209.583 168.235C209.508 168.053 209.433 167.871 209.356 167.683C209.15 167.183 208.942 166.684 208.733 166.185C208.443 165.363 208.443 165.363 208.443 164.293C208.267 164.293 208.09 164.293 207.908 164.293C207.997 164.558 208.085 164.823 208.176 165.096C207.999 165.361 207.823 165.626 207.641 165.898C206.659 167.893 205.843 169.957 205.039 172.028C204.805 172.624 204.57 173.221 204.335 173.817C203.97 174.746 203.606 175.675 203.245 176.606C202.893 177.511 202.536 178.415 202.179 179.319C202.018 179.738 202.018 179.738 201.854 180.165C201.751 180.424 201.649 180.682 201.543 180.948C201.41 181.289 201.41 181.289 201.274 181.636C200.898 182.317 200.546 182.626 199.881 183.023C199.062 183.13 199.062 183.13 198.158 183.124C197.861 183.126 197.563 183.128 197.256 183.13C196.301 183.011 195.817 182.817 195.064 182.221C194.669 181.595 194.669 181.595 194.362 180.9C193.958 180.001 193.542 179.244 192.924 178.475C193.1 178.475 193.277 178.475 193.459 178.475C193.031 177.376 192.601 176.278 192.171 175.18C192.106 175.014 192.041 174.847 191.974 174.676C191.223 172.759 190.465 170.846 189.684 168.942C189.551 168.619 189.419 168.296 189.282 167.963C189.028 167.346 188.773 166.729 188.517 166.112C187.556 163.779 187.556 163.779 187.256 162.634C187.183 162.387 187.111 162.14 187.037 161.885C186.861 161.796 186.684 161.708 186.502 161.617C186.321 161.158 186.321 161.158 186.151 160.564C185.262 157.675 185.262 157.675 183.09 155.73C182.882 155.637 182.674 155.543 182.459 155.446C181.953 155.195 181.953 155.195 181.686 154.66C181.675 154.036 181.674 153.411 181.686 152.787C183.155 151.862 184.405 151.871 186.084 151.887Z" fill="#99865A"/>
<path d="M140.972 75.4967C142.712 76.8174 143.916 78.9167 144.225 81.0762C144.269 82.4601 144.165 83.7172 143.957 85.0898C144.134 85.1354 144.312 85.1809 144.495 85.2278C155.854 88.1789 165.054 94.0147 171.13 104.308C174.025 109.372 176.597 115.81 176.066 121.748C175.543 123.162 175.543 123.162 174.816 123.66C173.967 123.972 173.23 123.959 172.326 123.963C172.137 123.965 171.949 123.966 171.755 123.968C171.123 123.972 170.491 123.973 169.859 123.974C169.405 123.976 168.951 123.979 168.497 123.982C167.257 123.989 166.017 123.994 164.776 123.997C163.457 124.001 162.138 124.008 160.819 124.015C158.583 124.026 156.346 124.036 154.11 124.043C151.036 124.054 147.963 124.068 144.89 124.083C138.418 124.115 131.945 124.137 125.473 124.154C124.693 124.156 123.913 124.158 123.132 124.16C120.18 124.168 117.228 124.174 114.276 124.178C113.382 124.179 112.489 124.18 111.595 124.182C109.003 124.188 106.412 124.183 103.82 124.156C103.42 124.153 103.42 124.153 103.012 124.15C102.356 124.143 101.7 124.126 101.044 124.105C100.717 124.096 100.389 124.086 100.051 124.077C99.0301 123.83 98.7492 123.427 98.2012 122.551C96.5679 117.651 99.8171 110.3 101.942 105.96C106.312 97.4628 113.892 90.0789 123.023 86.9792C124.636 86.4751 126.264 86.0359 127.902 85.625C128.219 85.5452 128.219 85.5452 128.542 85.4639C129.042 85.3384 129.542 85.214 130.043 85.0898C129.911 84.767 129.911 84.767 129.775 84.4376C129.141 82.1789 129.513 80.2126 130.578 78.1328C133.013 74.6038 137.163 73.1242 140.972 75.4967ZM133.705 79.755C133.083 80.9393 133.066 82.1775 133.254 83.4844C133.452 84.0826 133.452 84.0826 133.789 84.5547C134.863 84.9128 135.858 84.8925 136.983 84.9059C137.309 84.9175 137.309 84.9175 137.641 84.9294C138.944 84.9449 138.944 84.9449 140.079 84.354C140.726 83.3791 140.793 82.4969 140.746 81.3437C140.393 80.0978 139.891 79.1647 138.84 78.368C136.866 77.4427 134.951 78.1056 133.705 79.755ZM115.61 94.823C115.366 94.9951 115.366 94.9951 115.116 95.1708C114.729 95.4528 114.357 95.755 113.988 96.0605C113.988 96.2371 113.988 96.4137 113.988 96.5957C113.846 96.6519 113.703 96.7081 113.557 96.7661C112.665 97.2751 111.982 97.9648 111.262 98.6861C111.109 98.8401 110.955 98.994 110.797 99.1526C109.321 100.671 108.16 102.298 107.031 104.088C106.814 104.421 106.814 104.421 106.593 104.76C103.647 109.438 101.639 114.861 101.412 120.41C101.674 120.731 101.674 120.731 102.168 120.711C102.383 120.711 102.598 120.711 102.82 120.711C103.068 120.711 103.315 120.712 103.57 120.712C103.845 120.711 104.12 120.711 104.404 120.71C104.838 120.71 104.838 120.71 105.282 120.711C106.261 120.711 107.24 120.71 108.219 120.708C108.918 120.708 109.616 120.708 110.315 120.708C111.823 120.708 113.332 120.708 114.84 120.706C117.021 120.704 119.201 120.703 121.382 120.703C124.92 120.702 128.457 120.7 131.995 120.698C135.433 120.695 138.87 120.694 142.307 120.692C142.625 120.692 142.625 120.692 142.949 120.692C144.011 120.692 145.073 120.692 146.135 120.691C154.953 120.688 163.77 120.684 172.588 120.678C172.591 120.293 172.594 119.908 172.596 119.524C172.597 119.31 172.598 119.095 172.6 118.875C172.585 118.14 172.468 117.475 172.293 116.761C172.197 116.367 172.197 116.367 172.099 115.965C171.993 115.558 171.993 115.558 171.885 115.142C171.812 114.858 171.739 114.573 171.664 114.28C170.304 109.165 167.811 104.568 164.293 100.609C164.111 100.396 163.929 100.182 163.742 99.9613C162.591 98.6238 161.37 97.4518 160.012 96.3281C159.725 96.0772 159.725 96.0772 159.433 95.8212C147.267 85.5071 128.325 85.8612 115.61 94.823Z" fill="#9C885C"/>
<path d="M185.565 72.915C188.876 74.5789 190.95 77.7716 192.189 81.1901C193.274 84.9348 193.255 89.0127 191.586 92.582C190.77 93.9818 189.847 95.2868 188.84 96.5549C188.648 96.8002 188.456 97.0454 188.258 97.2981C188.082 97.5112 187.905 97.7244 187.724 97.944C186.495 100.267 187.092 103.368 187.245 105.913C187.27 106.349 187.294 106.785 187.318 107.22C187.382 108.363 187.448 109.506 187.515 110.649C187.621 112.472 187.725 114.295 187.827 116.118C187.863 116.747 187.9 117.375 187.937 118.004C188.445 126.789 188.445 126.789 186.669 128.939C185.374 129.988 184.491 130.409 182.806 130.494C182.495 130.512 182.184 130.53 181.864 130.548C181.629 130.558 181.393 130.568 181.15 130.578C181.239 130.313 181.327 130.048 181.418 129.775C181.252 129.698 181.087 129.621 180.916 129.541C180.348 129.24 180.348 129.24 179.812 128.705C179.136 128.624 179.136 128.624 178.334 128.639C177.859 128.637 177.859 128.637 177.376 128.635C176.85 128.637 176.85 128.637 176.313 128.64C175.94 128.639 175.566 128.639 175.192 128.638C174.162 128.636 173.132 128.638 172.101 128.64C170.991 128.642 169.881 128.64 168.771 128.639C166.847 128.638 164.922 128.638 162.998 128.64C159.957 128.642 156.916 128.639 153.875 128.635C152.836 128.634 151.796 128.633 150.756 128.632C150.497 128.631 150.237 128.631 149.969 128.631C147.01 128.627 144.05 128.625 141.091 128.624C140.82 128.624 140.549 128.624 140.27 128.623C135.884 128.621 131.498 128.622 127.112 128.624C122.612 128.625 118.111 128.622 113.611 128.614C110.834 128.609 108.056 128.608 105.279 128.613C103.376 128.617 101.473 128.615 99.5703 128.609C98.4717 128.606 97.3731 128.605 96.2744 128.61C95.269 128.615 94.2638 128.613 93.2584 128.607C92.7216 128.605 92.1847 128.61 91.6479 128.615C89.0512 128.588 89.0512 128.588 88.2116 127.802C87.7656 127.1 87.7656 127.1 87.7322 126.397C88.1317 125.554 88.5395 125.368 89.3711 124.959C90.112 124.859 90.112 124.859 90.9356 124.86C91.2505 124.859 91.5655 124.857 91.8899 124.855C92.2348 124.858 92.5797 124.86 92.935 124.862C93.3059 124.862 93.6768 124.861 94.0477 124.86C95.0667 124.859 96.0857 124.862 97.1047 124.866C98.2036 124.869 99.3026 124.868 100.402 124.867C102.305 124.867 104.209 124.87 106.113 124.874C108.866 124.881 111.619 124.883 114.372 124.884C118.838 124.885 123.304 124.891 127.77 124.898C132.108 124.906 136.447 124.911 140.785 124.915C141.187 124.915 141.187 124.915 141.596 124.916C142.937 124.917 144.279 124.918 145.62 124.919C156.75 124.927 167.88 124.941 179.01 124.959C179.009 124.668 179.008 124.378 179.007 124.078C179.007 123.691 179.006 123.304 179.005 122.917C179.005 122.631 179.005 122.631 179.004 122.339C179.002 120.767 179.067 119.208 179.176 117.64C179.193 117.376 179.21 117.112 179.228 116.84C179.282 116.012 179.338 115.184 179.394 114.356C179.431 113.802 179.467 113.247 179.504 112.692C179.65 110.461 179.802 108.231 179.965 106.002C180.541 101.417 180.541 101.417 178.932 97.3347C178.781 97.1791 178.63 97.0235 178.475 96.8633C178.206 96.5578 177.938 96.2512 177.672 95.9435C177.54 95.7941 177.409 95.6448 177.274 95.4909C175.737 93.589 174.461 91.3209 174.461 88.8359C174.284 88.7476 174.108 88.6593 173.926 88.5683C174.054 83.3153 175.065 78.3238 178.936 74.462C180.961 72.6459 182.944 71.8857 185.565 72.915ZM180.08 78.1328C178.121 81.0632 177.085 84.2316 177.404 87.7656C178.106 91.1388 179.762 93.3419 181.966 95.9058C184.066 98.6786 183.283 102.703 183.057 105.938C183.033 106.297 183.009 106.655 182.985 107.014C182.885 108.52 182.783 110.027 182.678 111.533C182.419 115.266 182.173 118.996 182.154 122.741C182.151 123.003 182.149 123.264 182.146 123.534C182.152 124.748 182.173 125.733 182.756 126.832C183.402 126.877 183.402 126.877 184.094 126.832C185.045 125.881 184.933 124.777 184.94 123.499C184.939 123.267 184.938 123.036 184.937 122.797C184.937 122.552 184.936 122.306 184.936 122.052C184.912 118.846 184.706 115.649 184.512 112.45C184.385 110.322 184.261 108.195 184.144 106.067C184.11 105.451 184.075 104.834 184.039 104.217C183.987 103.303 183.94 102.388 183.894 101.473C183.878 101.197 183.861 100.922 183.844 100.638C183.743 98.4481 184.052 97.0216 185.432 95.2578C185.632 95.0015 185.832 94.7452 186.038 94.4812C186.45 93.9734 186.867 93.4704 187.291 92.9729C189.383 90.4631 189.674 87.7164 189.495 84.557C189.221 81.5991 187.808 78.9363 185.548 77.0134C183.182 75.248 181.879 76.086 180.08 78.1328Z" fill="#9B885B"/>
<path d="M98.7363 153.59C100.512 155.083 101.573 156.923 101.947 159.209C102.018 160.344 102.033 161.478 102.037 162.615C102.039 163.186 102.045 163.756 102.051 164.327C102.066 165.742 102.076 167.157 102.085 168.572C102.094 169.772 102.104 170.972 102.117 172.172C102.123 172.732 102.125 173.293 102.127 173.853C102.131 174.194 102.134 174.536 102.138 174.887C102.141 175.336 102.141 175.336 102.144 175.795C102.216 176.61 102.405 177.202 102.75 177.939C104.014 178.146 105.216 178.233 106.496 178.207C106.831 178.759 106.831 178.759 107.031 179.545C106.36 181.303 105.197 182.167 103.553 183.023C101.901 183.718 99.9561 183.824 98.2012 183.559C96.7151 182.889 95.5439 181.809 94.4551 180.615C94.5875 180.218 94.5875 180.218 94.7227 179.813C93.8964 180.277 93.1656 180.79 92.4315 181.385C89.7028 183.417 87.0746 183.886 83.752 183.559C81.6186 183.052 79.9189 182.199 78.668 180.348C78.5797 180.171 78.4914 179.994 78.4004 179.813C78.1355 179.724 77.8706 179.636 77.5977 179.545C77.3526 172.975 77.3526 172.975 79.7885 170.096C82.3444 167.456 85.4246 166.261 88.8694 165.179C89.1236 165.097 89.3778 165.015 89.6397 164.93C90.9796 164.505 92.2535 164.171 93.6524 164.025C93.6524 163.672 93.6524 163.319 93.6524 162.955C93.3875 162.823 93.3875 162.823 93.1172 162.688C93.2938 162.688 93.4704 162.688 93.6524 162.688C93.5861 162.323 93.5861 162.323 93.5186 161.952C93.3785 161.022 93.3925 160.131 93.4182 159.192C93.4347 157.876 93.31 157.09 92.582 155.998C92.4054 155.998 92.2288 155.998 92.0469 155.998C92.0469 155.821 92.0469 155.645 92.0469 155.463C89.6417 155.309 89.6417 155.309 87.4981 156.266C86.656 157.386 86.2016 158.427 85.7923 159.761C85.2547 161.31 84.9479 162.18 83.4844 162.955C82.409 163.289 81.5472 163.284 80.4574 162.955C79.5495 162.279 79.1199 161.651 78.9356 160.547C78.9999 157.952 80.3817 156.063 82.1967 154.326C86.5346 150.678 94.0962 150.196 98.7363 153.59ZM86.4277 170.715C85.6026 171.718 85.2543 172.619 85.3574 173.926C85.2967 174.136 85.236 174.345 85.1735 174.561C85.0508 175.592 85.4223 176.23 85.8926 177.137C86.4329 177.812 86.6539 177.926 87.4981 178.207C89.3732 178.392 91.05 178.328 92.582 177.137C93.3265 176.376 93.6318 175.953 93.7739 174.886C93.7683 174.545 93.7627 174.204 93.7569 173.854C93.7546 173.58 93.7546 173.58 93.7523 173.301C93.7463 172.723 93.7329 172.146 93.7193 171.568C93.7139 171.174 93.709 170.781 93.7046 170.387C93.6929 169.426 93.6744 168.465 93.6524 167.504C91.0391 167.504 88.3441 168.993 86.4277 170.715ZM77.8652 178.742C78.1328 179.277 78.1328 179.277 78.1328 179.277L77.8652 178.742Z" fill="#9A875B"/>
<path d="M168.445 151.417C170.319 151.371 172.089 151.625 173.926 151.984C173.926 152.161 173.926 152.338 173.926 152.52C174.141 152.569 174.356 152.619 174.578 152.67C177.28 153.76 179.162 156.009 180.38 158.604C181.105 160.469 181.865 162.818 181.418 164.828C181.082 165.465 180.712 166.08 180.348 166.701C180.128 166.701 179.908 166.7 179.681 166.699C177.61 166.694 175.539 166.69 173.468 166.687C172.403 166.686 171.338 166.684 170.273 166.681C169.246 166.678 168.219 166.677 167.192 166.676C166.799 166.675 166.407 166.674 166.015 166.673C165.466 166.671 164.918 166.671 164.369 166.671C164.057 166.67 163.744 166.67 163.422 166.669C162.698 166.651 162.698 166.651 162.152 166.969C162.638 172.184 162.638 172.184 165.631 176.334C168.067 177.9 170.843 177.957 173.658 177.672C175.502 177.208 177.002 176.412 178.341 175.059C178.829 174.657 179.187 174.537 179.812 174.461C180.415 174.846 180.415 174.846 180.883 175.264C180.754 176.615 180.356 177.393 179.545 178.475C179.263 178.864 179.263 178.864 178.976 179.261C176.854 181.748 173.59 183.304 170.372 183.618C166.184 183.828 162.624 183.24 159.209 180.615C158.934 180.361 158.665 180.1 158.406 179.829C158.23 179.647 158.053 179.465 157.871 179.277C157.606 179.277 157.341 179.277 157.068 179.277C156.892 179.101 156.715 178.924 156.533 178.742C156.798 178.742 157.063 178.742 157.336 178.742C157.159 178.566 156.983 178.389 156.801 178.207C156.712 177.942 156.624 177.677 156.533 177.404C156.262 176.926 155.976 176.459 155.688 175.991C155.463 175.531 155.463 175.531 155.463 174.729C155.198 174.64 154.933 174.552 154.66 174.461C154.644 174.3 154.628 174.138 154.611 173.972C154.589 173.758 154.566 173.544 154.543 173.324C154.521 173.113 154.5 172.902 154.477 172.684C154.409 172.071 154.409 172.071 154.258 171.559C153.188 166.921 154.383 162.098 156.742 158.088C158.832 154.758 161.897 152.794 165.631 151.717C166.57 151.508 167.486 151.463 168.445 151.417ZM164.672 156.443C163.157 158.294 162.588 160.331 162.42 162.688C162.926 163.194 163.663 162.99 164.336 162.992C164.683 162.991 164.683 162.991 165.036 162.991C165.39 162.991 165.39 162.991 165.751 162.991C166.251 162.992 166.751 162.991 167.251 162.99C168.018 162.989 168.785 162.99 169.552 162.992C170.037 162.992 170.522 162.991 171.006 162.991C171.237 162.991 171.467 162.992 171.705 162.992C172.852 163.021 172.852 163.021 173.926 162.688C173.841 160.188 173.538 158.238 171.936 156.266C171.227 155.713 170.798 155.539 169.912 155.463C169.912 155.375 169.912 155.286 169.912 155.195C167.032 154.997 167.032 154.997 164.672 156.443Z" fill="#9A875A"/>
<path d="M112.609 151.949C113.193 151.951 113.776 151.949 114.359 151.948C114.737 151.948 115.115 151.948 115.493 151.949C115.828 151.949 116.163 151.949 116.507 151.95C119.132 152.044 119.132 152.044 119.875 152.787C120.009 153.556 120.009 153.556 119.875 154.393C118.904 155.202 117.802 155.724 116.664 156.266C116.694 156.706 116.729 157.147 116.764 157.587C116.792 157.955 116.792 157.955 116.821 158.33C116.876 158.633 116.876 158.633 116.932 158.941C117.108 159.03 117.285 159.118 117.467 159.209C117.659 159.723 117.659 159.723 117.839 160.391C118.249 161.838 118.747 163.237 119.275 164.644C119.368 164.895 119.462 165.145 119.558 165.403C119.753 165.926 119.949 166.45 120.145 166.973C120.445 167.776 120.745 168.58 121.045 169.384C121.235 169.895 121.426 170.405 121.616 170.916C121.751 171.276 121.751 171.276 121.888 171.644C121.971 171.866 122.055 172.088 122.14 172.316C122.25 172.609 122.25 172.609 122.361 172.907C122.548 173.406 122.548 173.406 122.818 173.926C123.562 172.151 124.304 170.376 125.046 168.6C125.298 167.997 125.55 167.394 125.803 166.792C126.167 165.921 126.531 165.05 126.895 164.179C127.006 163.913 127.118 163.648 127.233 163.374C128.823 159.94 128.823 159.94 129.24 156.266C129.073 156.178 128.905 156.091 128.732 156.001C128.514 155.884 128.295 155.767 128.07 155.647C127.852 155.532 127.635 155.417 127.411 155.299C126.832 154.928 126.832 154.928 126.297 154.125C126.384 153.236 126.459 152.892 127.1 152.252C127.892 152.158 127.892 152.158 128.901 152.122C129.169 152.113 129.169 152.113 129.443 152.103C129.822 152.09 130.202 152.078 130.581 152.068C131.157 152.051 131.732 152.029 132.307 152.006C132.677 151.994 133.046 151.983 133.416 151.972C133.75 151.961 134.085 151.951 134.429 151.94C136.797 152.049 136.797 152.049 137.535 152.787C137.569 153.64 137.569 153.64 137.268 154.66C136.769 155.019 136.769 155.019 136.147 155.363C135.054 156.017 134.618 156.567 134.117 157.733C133.982 158.044 133.846 158.355 133.706 158.676C133.597 158.933 133.597 158.933 133.486 159.195C133.241 159.775 132.991 160.353 132.74 160.93C132.257 162.044 131.779 163.159 131.303 164.276C130.99 165.01 130.676 165.745 130.362 166.479C129.423 168.673 128.487 170.867 127.551 173.062C127.186 173.918 126.82 174.774 126.455 175.629C126.203 176.219 125.952 176.809 125.701 177.4C125.281 178.385 124.855 179.367 124.424 180.348C124.271 180.699 124.271 180.699 124.114 181.058C123.64 182.086 123.338 182.605 122.283 183.023C121.514 183.095 121.514 183.095 120.678 183.09C120.264 183.092 120.264 183.092 119.842 183.095C119.068 183.023 118.64 182.923 118.002 182.488C117.389 181.681 116.984 180.772 116.664 179.813C116.412 179.136 116.156 178.462 115.895 177.789C115.792 177.514 115.792 177.514 115.687 177.233C115.311 176.272 115.136 175.85 114.256 175.264C114.188 174.753 114.122 174.242 114.076 173.729C113.924 172.676 113.501 171.738 113.085 170.765C113.004 170.564 112.922 170.364 112.839 170.157C112.432 169.186 112.101 168.491 111.312 167.771C111.489 167.771 111.666 167.771 111.848 167.771C111.79 167.634 111.732 167.497 111.672 167.356C111.205 166.248 110.739 165.139 110.272 164.031C109.939 163.238 109.604 162.445 109.267 161.654C109.147 161.371 109.028 161.089 108.904 160.798C108.799 160.552 108.695 160.306 108.587 160.052C108.369 159.477 108.369 159.477 108.369 158.941C108.193 158.853 108.016 158.765 107.834 158.674C107.638 158.145 107.461 157.609 107.299 157.068C107.211 156.803 107.122 156.539 107.031 156.266C106.434 156.02 106.434 156.02 105.727 155.864C104.781 155.633 104.136 155.471 103.553 154.66C103.586 153.707 103.586 153.707 103.82 152.787C104.768 152.155 105.268 152.151 106.396 152.087C106.66 152.072 106.66 152.072 106.93 152.056C108.822 151.958 110.715 151.944 112.609 151.949Z" fill="#9A875A"/>
<path d="M148.773 151.717C149.304 152.123 149.544 152.361 149.678 153.022C149.678 153.212 149.679 153.402 149.679 153.598C149.682 153.817 149.684 154.035 149.687 154.261C149.686 154.5 149.685 154.739 149.683 154.985C149.686 155.363 149.686 155.363 149.689 155.75C149.694 156.585 149.694 157.421 149.694 158.257C149.697 158.836 149.701 159.416 149.705 159.995C149.715 161.522 149.72 163.049 149.724 164.575C149.731 167.02 149.741 169.465 149.757 171.91C149.761 172.766 149.762 173.621 149.763 174.477C149.766 175 149.768 175.522 149.771 176.044C149.77 176.403 149.77 176.403 149.769 176.77C149.72 178.019 149.72 178.019 150.379 179.01C150.781 179.164 151.188 179.302 151.6 179.428C152.761 179.786 152.761 179.786 153.055 180.08C153.092 180.795 153.066 181.505 153.055 182.221C151.621 183.108 150.454 183.137 148.823 183.121C148.573 183.121 148.323 183.121 148.065 183.121C147.539 183.12 147.012 183.118 146.486 183.113C145.681 183.107 144.877 183.108 144.073 183.11C143.56 183.108 143.047 183.106 142.534 183.104C142.295 183.104 142.055 183.104 141.808 183.105C140.331 183.088 139.167 183.049 138.07 181.953C137.937 181.184 137.937 181.184 138.07 180.348C138.781 179.766 139.463 179.375 140.295 178.993C140.842 178.755 140.842 178.755 141.014 177.939C141.04 177.352 141.051 176.763 141.053 176.175C141.053 175.997 141.054 175.819 141.055 175.635C141.058 175.047 141.058 174.458 141.059 173.869C141.059 173.46 141.06 173.05 141.061 172.641C141.063 171.782 141.063 170.923 141.063 170.064C141.063 168.965 141.067 167.866 141.071 166.767C141.074 165.92 141.075 165.074 141.075 164.228C141.075 163.823 141.076 163.418 141.078 163.013C141.081 162.445 141.08 161.878 141.079 161.311C141.079 160.827 141.079 160.827 141.08 160.333C141.014 159.483 140.874 158.891 140.479 158.139C139.958 157.981 139.958 157.981 139.408 157.871C138.74 157.249 138.615 156.913 138.539 155.998C138.873 155.195 138.873 155.195 139.333 154.927C139.527 154.849 139.721 154.77 139.92 154.689C140.138 154.599 140.355 154.508 140.579 154.415C140.811 154.319 141.042 154.224 141.281 154.125C141.748 153.916 142.214 153.705 142.68 153.494C143.161 153.28 143.643 153.067 144.124 152.854C144.366 152.744 144.607 152.634 144.856 152.521C146.195 151.933 147.282 151.494 148.773 151.717Z" fill="#9A885B"/>
<path d="M86.3943 73.2161C87.2304 73.3164 87.2304 73.3164 87.6938 73.8235C88.1888 75.0353 88.0189 76.0614 87.8774 77.3437C87.8526 77.604 87.8277 77.8643 87.802 78.1324C87.7217 78.9637 87.6352 79.7941 87.5482 80.6246C87.4653 81.4524 87.3837 82.2803 87.303 83.1082C87.2524 83.6227 87.2004 84.1371 87.1466 84.6513C86.7501 88.4943 86.7501 88.4943 88.1168 92.0197C88.4373 92.393 88.7694 92.7561 89.1035 93.1172C89.1035 93.2938 89.1035 93.4704 89.1035 93.6523C89.2801 93.6523 89.4567 93.6523 89.6387 93.6523C89.9648 94.0056 89.9648 94.0056 90.3076 94.4885C90.4773 94.7213 90.4773 94.7213 90.6504 94.9589C91.5816 96.5765 91.5865 98.0959 91.5619 99.9091C91.56 100.179 91.558 100.448 91.5561 100.726C91.5249 103.712 91.3897 106.692 91.2441 109.674C91.2055 110.485 91.1672 111.297 91.1296 112.109C91.1064 112.607 91.0827 113.104 91.0581 113.602C90.9966 114.902 90.967 116.196 90.982 117.498C90.9752 118.128 90.8865 118.71 90.7424 119.323C90.699 119.519 90.6555 119.714 90.6107 119.916C90.4414 120.41 90.4414 120.41 89.9062 120.945C89.1202 121.046 89.1202 121.046 88.3008 120.945C87.5539 120.176 87.3971 119.627 87.4008 118.571C87.4006 118.311 87.4005 118.051 87.4003 117.784C87.405 117.503 87.4096 117.221 87.4144 116.932C87.4167 116.636 87.4189 116.34 87.4212 116.035C87.4561 113.546 87.6393 111.077 87.8409 108.597C88.0279 106.154 88.086 103.727 88.0834 101.278C88.0835 100.934 88.0837 100.589 88.0839 100.233C88.1483 98.3814 88.1483 98.3814 87.7656 96.5957C87.5007 96.5074 87.2358 96.4191 86.9629 96.3281C86.6294 95.9205 86.6294 95.9205 86.3106 95.425C85.9317 94.8372 85.6887 94.4937 85.0846 94.1279C84.282 93.4076 84.1683 92.5107 83.9526 91.495C83.9064 91.3041 83.8602 91.1132 83.8126 90.9165C83.2783 88.544 83.4691 86.1675 83.6903 83.7645C83.7121 83.5226 83.734 83.2808 83.7565 83.0316C83.8028 82.5252 83.8499 82.0188 83.8975 81.5126C83.9695 80.7402 84.0366 79.9675 84.1037 79.1948C84.1495 78.7 84.1957 78.2053 84.2421 77.7105C84.2614 77.4814 84.2807 77.2523 84.3005 77.0162C84.6536 73.4431 84.6536 73.4431 86.3943 73.2161Z" fill="#9E8B5F"/>
<path d="M96.5957 73.0488C98.1002 73.4413 98.1002 73.4413 98.5031 74.0105C98.8251 74.8994 98.9228 75.7928 99.0227 76.727C99.0458 76.9302 99.0689 77.1334 99.0927 77.3427C99.1663 78.0016 99.2361 78.6608 99.3049 79.3202C99.3286 79.5438 99.3522 79.7673 99.3766 79.9977C100.433 90.0958 100.433 90.0958 98.7363 92.8496C98.6135 93.0531 98.4907 93.2566 98.3642 93.4663C97.5926 94.6725 96.7293 95.8101 95.8463 96.9364C94.2876 99.1806 95.3545 103.998 95.4868 106.624C95.8475 113.876 95.8475 113.876 95.8766 117.216C95.8812 117.457 95.8859 117.698 95.8907 117.946C95.8895 119.492 95.8895 119.492 95.4179 120.056C94.8946 120.489 94.6037 120.657 93.9199 120.678C93.1778 120.084 92.8847 119.713 92.582 118.805C92.5356 118.264 92.5031 117.723 92.478 117.181C92.4619 116.845 92.4459 116.51 92.4293 116.165C92.4129 115.798 92.3966 115.43 92.3803 115.063C92.3628 114.684 92.3451 114.304 92.3275 113.925C92.2905 113.128 92.2544 112.331 92.2189 111.534C92.1738 110.523 92.1269 109.513 92.0794 108.503C92.0427 107.718 92.0069 106.933 91.9713 106.148C91.9544 105.776 91.9372 105.405 91.9198 105.033C91.8294 103.096 91.762 101.159 91.7496 99.2197C91.7476 98.8988 91.7455 98.5778 91.7433 98.2471C91.8297 96.2092 92.7937 94.8345 94.0704 93.3179C96.3616 90.5457 96.5264 88.2122 96.2525 84.6378C96.15 83.5837 96.0411 82.5304 95.9268 81.4775C95.7119 79.4994 95.501 77.5218 95.4334 75.5323C95.4246 75.2841 95.4158 75.0359 95.4068 74.7802C95.5613 73.919 95.9393 73.6028 96.5957 73.0488Z" fill="#9A885B"/>
<path d="M147.442 139.479C148.641 140.441 149.435 141.41 149.669 142.972C149.772 144.698 149.385 145.871 148.238 147.168C146.835 148.285 145.578 148.642 143.809 148.612C142.554 148.408 141.647 147.774 140.746 146.9C139.925 145.75 139.585 144.65 139.676 143.238C140.004 141.372 141.101 140.212 142.619 139.141C144.309 138.407 145.877 138.501 147.442 139.479Z" fill="#9B885A"/>
<path d="M179.545 111.58C179.633 111.58 179.722 111.58 179.812 111.58C179.846 114.665 179.806 117.746 179.713 120.83C179.701 121.209 179.69 121.587 179.68 121.966C179.664 122.502 179.647 123.038 179.63 123.574C179.62 123.886 179.61 124.198 179.6 124.52C179.545 125.227 179.545 125.227 179.277 125.494C178.796 125.52 178.314 125.527 177.832 125.527C177.359 125.528 177.359 125.528 176.876 125.529C176.525 125.528 176.173 125.527 175.812 125.526C175.438 125.526 175.065 125.527 174.692 125.527C173.661 125.528 172.631 125.527 171.6 125.525C170.491 125.524 169.381 125.524 168.271 125.525C166.348 125.525 164.424 125.524 162.5 125.522C159.718 125.52 156.936 125.52 154.154 125.519C149.642 125.519 145.129 125.517 140.616 125.514C136.232 125.512 131.847 125.51 127.462 125.509C127.192 125.509 126.922 125.509 126.644 125.509C125.289 125.508 123.934 125.508 122.579 125.508C111.331 125.505 100.084 125.5 88.8359 125.494C89.3711 124.959 89.3711 124.959 90.0123 124.893C90.2844 124.893 90.5565 124.893 90.8369 124.893C91.1502 124.892 91.4635 124.891 91.7863 124.89C92.1335 124.891 92.4807 124.893 92.8385 124.895C93.2087 124.894 93.5789 124.894 93.9491 124.893C94.9699 124.892 95.9907 124.894 97.0115 124.897C98.111 124.899 99.2105 124.898 100.31 124.898C102.216 124.898 104.122 124.899 106.028 124.902C108.784 124.907 111.54 124.908 114.296 124.909C118.767 124.91 123.238 124.914 127.709 124.919C132.053 124.924 136.397 124.927 140.741 124.93C141.143 124.93 141.143 124.93 141.552 124.93C142.895 124.931 144.237 124.931 145.58 124.932C156.723 124.938 167.866 124.947 179.01 124.959C179.009 124.518 179.009 124.518 179.008 124.069C179.008 123.68 179.007 123.29 179.007 122.901C179.006 122.708 179.006 122.515 179.005 122.316C179.004 120.963 179.038 119.619 179.127 118.27C179.139 118.074 179.151 117.878 179.163 117.676C179.2 117.071 179.239 116.466 179.277 115.861C179.303 115.443 179.329 115.024 179.355 114.605C179.417 113.597 179.48 112.588 179.545 111.58Z" fill="#CAB280"/>
<path d="M91.9298 73.2495C92.582 73.584 92.582 73.584 93.1172 74.3867C93.1899 74.9038 93.1899 74.9038 93.1982 75.4958C93.2027 75.7183 93.2071 75.9409 93.2117 76.1701C93.214 76.4101 93.2162 76.6501 93.2186 76.8973C93.2231 77.1459 93.2277 77.3944 93.2323 77.6505C93.2466 78.4467 93.2573 79.243 93.2677 80.0393C93.2795 80.8298 93.2921 81.6204 93.3059 82.4109C93.3143 82.9026 93.3216 83.3943 93.3274 83.8861C93.351 85.3745 93.467 86.8235 93.6523 88.3008C93.4757 88.3008 93.2991 88.3008 93.1172 88.3008C93.1006 88.4663 93.0841 88.6319 93.067 88.8025C92.8496 89.3711 92.8496 89.3711 92.2475 89.7557C91.5117 89.9062 91.5117 89.9062 90.7759 89.6387C89.8812 88.8434 89.9379 88.0317 89.8688 86.8672C89.8363 86.1045 89.8132 85.3419 89.7933 84.5787C89.7859 84.2991 89.7784 84.0194 89.7707 83.7313C89.7557 83.1419 89.7413 82.5524 89.7276 81.963C89.7056 81.0615 89.6779 80.1603 89.6502 79.259C89.6362 78.6854 89.6226 78.1117 89.6094 77.5381C89.6002 77.2691 89.5911 77.0001 89.5816 76.7229C89.5384 74.3313 89.5384 74.3313 90.4414 73.3164C91.2441 73.0488 91.2441 73.0488 91.9298 73.2495Z" fill="#9D8B5F"/>
<path d="M92.582 105.693C92.6703 105.693 92.7586 105.693 92.8496 105.693C93.1819 109.794 93.1444 113.891 93.1172 118.002C93.2055 117.031 93.2938 116.059 93.3848 115.059C93.4731 115.059 93.5614 115.059 93.6523 115.059C93.6592 115.378 93.6661 115.697 93.6732 116.025C93.6883 116.445 93.7036 116.864 93.7192 117.283C93.723 117.493 93.7268 117.703 93.7307 117.92C93.7552 119.173 93.7552 119.173 94.4676 120.154C94.7263 120.281 94.7263 120.281 94.9902 120.41C94.522 120.611 94.522 120.611 93.9199 120.678C93.1778 120.084 92.8847 119.713 92.582 118.805C92.5419 118.422 92.5139 118.038 92.494 117.654C92.4816 117.423 92.4692 117.191 92.4564 116.953C92.4444 116.704 92.4324 116.455 92.42 116.198C92.4072 115.941 92.3945 115.684 92.3813 115.419C92.3548 114.875 92.329 114.331 92.3038 113.787C92.2645 112.956 92.2208 112.126 92.177 111.295C92.1518 110.766 92.1269 110.238 92.1023 109.709C92.0886 109.461 92.075 109.213 92.061 108.957C92.0092 107.739 91.9845 106.799 92.582 105.693Z" fill="#9F8B5D"/>
<path d="M51.375 178.475C52.7878 178.916 54.2006 179.358 55.6562 179.812C55.6562 181.953 55.6562 181.953 55.3218 182.472C54.4074 183.027 53.4928 183.058 52.442 183.062C52.043 183.065 52.043 183.065 51.6358 183.067C51.2077 183.068 51.2077 183.068 50.7709 183.068C50.4767 183.069 50.1825 183.07 49.8794 183.071C49.2582 183.072 48.637 183.073 48.0158 183.073C47.0621 183.074 46.1085 183.078 45.1549 183.084C44.5518 183.084 43.9487 183.085 43.3456 183.085C43.059 183.087 42.7725 183.089 42.4773 183.091C42.2129 183.09 41.9486 183.089 41.6762 183.088C41.4429 183.089 41.2097 183.089 40.9694 183.09C40.4043 183.023 40.4043 183.023 39.8691 182.488C40.0371 182.49 40.2051 182.492 40.3782 182.494C42.1275 182.511 43.8767 182.524 45.6261 182.532C46.2788 182.536 46.9316 182.542 47.5843 182.549C48.5228 182.559 49.4612 182.563 50.3998 182.567C50.8372 182.573 50.8372 182.573 51.2834 182.579C53.2292 182.632 53.2292 182.632 54.8535 181.686C54.8535 181.332 54.8535 180.979 54.8535 180.615C54.6697 180.589 54.4858 180.563 54.2964 180.536C54.0553 180.496 53.8142 180.456 53.5658 180.415C53.3268 180.377 53.0877 180.34 52.8415 180.302C52.0346 180.032 51.7936 179.738 51.375 179.01C51.375 178.833 51.375 178.657 51.375 178.475Z" fill="#B5A276"/>
<path d="M184.094 155.998C184.571 156.026 184.571 156.026 185.164 156.266C185.631 156.998 185.631 156.998 186.084 157.955C186.203 158.206 186.203 158.206 186.325 158.463C186.567 158.977 186.802 159.494 187.037 160.012C187.175 160.308 187.313 160.604 187.455 160.909C188.103 162.362 188.557 163.498 188.375 165.096C187.616 164.337 187.516 163.498 187.246 162.477C187.098 161.838 187.098 161.838 186.502 161.617C186.321 161.158 186.321 161.158 186.151 160.564C185.705 159.138 185.055 157.853 184.361 156.533C184.273 156.357 184.185 156.18 184.094 155.998Z" fill="#A49061"/>
<path d="M98.7363 153.59C98.8688 153.855 98.8688 153.855 99.0039 154.125C98.0265 153.954 97.1394 153.688 96.2111 153.339C95.7155 153.154 95.2193 152.97 94.7227 152.787C94.4871 152.691 94.2515 152.595 94.0088 152.496C92.7468 152.151 91.5101 152.127 90.2073 152.085C89.9465 152.074 89.6857 152.064 89.4171 152.053C88.7775 152.028 88.1378 152.005 87.498 151.984C87.498 151.896 87.498 151.808 87.498 151.717C91.1877 151.061 95.6566 151.221 98.7363 153.59Z" fill="#B29E6E"/>
<path d="M88.5683 103.285C88.6566 103.285 88.7449 103.285 88.8359 103.285C88.9293 107.498 88.6405 111.663 88.3008 115.861C88.2125 115.861 88.1242 115.861 88.0332 115.861C87.5359 107.209 87.5359 107.209 88.5683 103.285Z" fill="#917E4F"/>
<path d="M98.7363 77.3301C98.8246 77.3301 98.9129 77.3301 99.0039 77.3301C99.5561 81.6312 99.9322 85.8362 99.8067 90.1738C99.7184 90.1738 99.6301 90.1738 99.5391 90.1738C99.529 89.947 99.529 89.947 99.5188 89.7156C99.4878 89.0321 99.4549 88.3487 99.422 87.6653C99.4115 87.4273 99.401 87.1893 99.3901 86.9441C99.3789 86.7164 99.3677 86.4888 99.3562 86.2542C99.3464 86.044 99.3365 85.8338 99.3264 85.6173C99.3007 85.0697 99.3007 85.0697 99.0039 84.5547C98.8273 84.5547 98.6507 84.5547 98.4688 84.5547C98.4414 82.1295 98.45 79.7432 98.7363 77.3301Z" fill="#B3A175"/>
<path d="M71.7109 149.041C71.7992 149.218 71.8875 149.394 71.9785 149.576C72.1551 149.576 72.3317 149.576 72.5137 149.576C72.6859 154.302 72.6859 154.302 71.7109 156.533C71.4498 156.807 71.183 157.076 70.9082 157.336C70.9449 157.177 70.9816 157.019 71.0194 156.855C71.3956 155.125 71.551 153.45 71.6106 151.683C71.6209 151.427 71.6313 151.171 71.642 150.908C71.6668 150.286 71.6898 149.663 71.7109 149.041Z" fill="#A49162"/>
<path d="M96.5957 73.0488C97.3817 73.2495 97.3817 73.2495 98.2012 73.584C98.4353 74.1526 98.4353 74.1526 98.4688 74.6543C98.3639 74.5218 98.2591 74.3894 98.151 74.2529C97.5992 73.7094 97.5992 73.7094 96.3281 73.8516C96.3281 76.8538 96.3281 79.856 96.3281 82.9492C96.2398 82.9492 96.1515 82.9492 96.0606 82.9492C95.2639 75.411 95.2639 75.411 95.5254 74.1191C96.0668 73.5014 96.0668 73.5014 96.5957 73.0488Z" fill="#B6A47A"/>
<path d="M130.578 78.9355C130.985 80.155 130.67 81.3418 130.49 82.5918C130.347 83.6732 130.272 84.5562 130.578 85.625C129.254 85.7575 129.254 85.7575 127.902 85.8926C128.684 85.5016 129.22 85.2662 130.043 85.0898C129.955 84.8746 129.866 84.6594 129.775 84.4376C129.268 82.6295 129.386 80.9549 130.043 79.2031C130.22 79.1148 130.396 79.0265 130.578 78.9355Z" fill="#AC996C"/>
<path d="M96.5957 86.1602C96.8606 86.3368 97.1255 86.5134 97.3984 86.6953C97.6434 88.6146 97.1129 90.6842 96.094 92.3145C95.4986 92.8748 94.9095 93.2713 94.1875 93.6523C94.4397 93.1153 94.6853 92.6304 95.0488 92.1598C96.4038 90.3916 96.4213 88.3055 96.5957 86.1602Z" fill="#A59264"/>
<path d="M140.479 75.1895C141.143 75.6859 141.755 76.219 142.352 76.7949C142.263 76.9715 142.175 77.1481 142.084 77.3301C141.957 77.17 141.83 77.01 141.699 76.8451C140.088 75.4698 138.112 75.3583 136.065 75.272C135.395 75.1895 135.395 75.1895 134.859 74.6543C136.796 74.1136 138.703 74.2084 140.479 75.1895Z" fill="#AD9A6D"/>
<path d="M92.582 112.918C92.6703 112.918 92.7586 112.918 92.8496 112.918C92.9379 114.596 93.0262 116.273 93.1172 118.002C93.2055 117.031 93.2938 116.059 93.3848 115.059C93.4731 115.059 93.5614 115.059 93.6523 115.059C93.6592 115.378 93.6661 115.697 93.6732 116.025C93.6883 116.445 93.7036 116.864 93.7192 117.283C93.723 117.493 93.7268 117.703 93.7307 117.92C93.7552 119.173 93.7552 119.173 94.4676 120.154C94.6401 120.239 94.8125 120.323 94.9902 120.41C94.522 120.611 94.522 120.611 93.9199 120.678C93.1778 120.084 92.8847 119.713 92.582 118.805C92.5601 118.35 92.5533 117.894 92.5559 117.439C92.5568 117.176 92.5576 116.913 92.5585 116.642C92.5607 116.368 92.563 116.094 92.5653 115.811C92.5665 115.534 92.5677 115.257 92.569 114.971C92.5721 114.287 92.5765 113.602 92.582 112.918Z" fill="#B5A276"/>
<path d="M127.635 152.52C128.878 152.506 130.12 152.497 131.363 152.49C131.786 152.487 132.209 152.484 132.632 152.479C133.239 152.473 133.847 152.47 134.455 152.467C134.738 152.463 134.738 152.463 135.028 152.459C136.016 152.459 136.422 152.491 137.268 153.055C137.351 153.857 137.351 153.857 137.268 154.66C136.732 155.195 136.732 155.195 136.03 155.229C135.82 155.218 135.611 155.207 135.395 155.195C135.651 154.964 135.651 154.964 135.913 154.727C136.556 154.122 136.556 154.122 136.732 153.055C133.73 152.966 130.728 152.878 127.635 152.787C127.635 152.699 127.635 152.611 127.635 152.52Z" fill="#816B39"/>
<path d="M184.896 119.875C184.985 119.875 185.073 119.875 185.164 119.875C185.877 121.836 186.139 124.135 185.298 126.096C185.165 126.339 185.033 126.582 184.896 126.832C184.808 126.832 184.72 126.832 184.629 126.832C184.717 124.536 184.806 122.24 184.896 119.875Z" fill="#A89466"/>
<path d="M201.754 152.52C202.322 152.62 202.322 152.62 202.824 152.787C202.648 152.964 202.471 153.14 202.289 153.322C202.289 153.675 202.289 154.029 202.289 154.393C202.995 154.657 203.702 154.922 204.43 155.195C204.43 155.46 204.43 155.725 204.43 155.998C204.045 155.877 203.66 155.754 203.276 155.63C202.954 155.528 202.954 155.528 202.627 155.423C202.021 155.195 202.021 155.195 201.219 154.66C201.135 153.857 201.135 153.857 201.219 153.055C201.395 152.878 201.572 152.701 201.754 152.52Z" fill="#A59162"/>
<path d="M135.395 87.7656C135.395 87.8539 135.395 87.9422 135.395 88.0332C134.348 88.1932 133.3 88.3504 132.252 88.5052C131.721 88.5842 131.19 88.6654 130.66 88.7466C130.325 88.7957 129.99 88.8449 129.646 88.8955C129.338 88.9418 129.029 88.988 128.712 89.0356C127.983 89.0967 127.515 89.0711 126.832 88.8359C127.097 88.8359 127.362 88.8359 127.635 88.8359C127.635 88.6593 127.635 88.4827 127.635 88.3008C127.858 88.2765 127.858 88.2765 128.086 88.2517C128.29 88.2292 128.495 88.2068 128.705 88.1837C129.038 88.1475 129.038 88.1475 129.377 88.1106C129.94 88.0451 130.502 87.9655 131.063 87.8827C132.501 87.6961 133.948 87.7439 135.395 87.7656Z" fill="#806A3A"/>
<path d="M116.664 158.406C116.752 158.583 116.841 158.759 116.932 158.941C117.108 159.03 117.285 159.118 117.467 159.209C117.676 159.773 117.676 159.773 117.868 160.48C118.081 161.241 118.294 161.943 118.604 162.671C118.805 163.223 118.805 163.223 118.537 164.025C117.366 162.989 116.757 161.438 116.596 159.896C116.597 159.399 116.627 158.902 116.664 158.406Z" fill="#A89465"/>
<path d="M143.422 79.2031C144.285 80.0663 144.22 80.9189 144.258 82.113C144.247 83.1257 144.123 84.0917 143.957 85.0898C144.575 85.2664 145.193 85.443 145.83 85.625C144.873 85.9563 144.134 85.8255 143.154 85.625C143.22 85.3053 143.22 85.3053 143.287 84.979C143.451 83.814 143.451 82.6853 143.439 81.511C143.437 81.2885 143.436 81.066 143.435 80.8368C143.432 80.2922 143.427 79.7477 143.422 79.2031Z" fill="#BBA87E"/>
<path d="M179.545 174.461C180.264 174.846 180.264 174.846 180.883 175.264C180.755 176.601 180.339 177.398 179.545 178.475C179.289 177.894 179.239 177.521 179.438 176.916C179.641 176.449 179.86 175.99 180.08 175.531C179.383 175.282 179.106 175.224 178.408 175.515C178.253 175.608 178.099 175.702 177.939 175.799C178.642 174.762 178.642 174.762 179.545 174.461Z" fill="#AE9C6F"/>
<path d="M109.439 161.35C109.704 161.438 109.969 161.526 110.242 161.617C110.563 162.337 110.838 163.032 111.095 163.775C111.168 163.978 111.241 164.181 111.316 164.39C111.496 164.892 111.672 165.395 111.848 165.898C111.671 166.075 111.494 166.252 111.312 166.434C111.049 165.838 110.787 165.241 110.526 164.644C110.415 164.393 110.415 164.393 110.301 164.137C109.9 163.213 109.59 162.346 109.439 161.35Z" fill="#A49061"/>
<path d="M111.848 93.3848C112.024 93.4731 112.201 93.5614 112.383 93.6523C112.217 93.851 112.052 94.0497 111.881 94.2544C111.312 94.9304 111.312 94.9304 111.062 95.5588C110.667 96.255 110.135 96.4971 109.439 96.8633C109.263 96.6867 109.086 96.5101 108.904 96.3281C109.757 95.1684 110.741 94.2894 111.848 93.3848Z" fill="#A79568"/>
<path d="M193.459 157.871C193.547 158.048 193.636 158.224 193.727 158.406C193.903 158.406 194.08 158.406 194.262 158.406C194.262 158.583 194.262 158.759 194.262 158.941C194.438 159.03 194.615 159.118 194.797 159.209C194.965 159.788 195.106 160.375 195.232 160.965C195.301 161.285 195.371 161.606 195.443 161.936C195.495 162.184 195.546 162.432 195.6 162.688C195.423 162.599 195.246 162.511 195.064 162.42C195.064 162.243 195.064 162.067 195.064 161.885C194.888 161.885 194.711 161.885 194.529 161.885C194.349 161.367 194.171 160.848 193.994 160.329C193.895 160.041 193.795 159.752 193.693 159.455C193.459 158.674 193.459 158.674 193.459 157.871Z" fill="#A38F61"/>
<path d="M123.621 180.08C123.957 181.088 123.72 181.517 123.354 182.488C122.026 182.842 120.702 182.78 119.34 182.756C119.252 182.579 119.163 182.403 119.072 182.221C119.311 182.223 119.55 182.226 119.796 182.228C121.542 182.269 121.542 182.269 123.02 181.518C123.349 180.951 123.349 180.951 123.621 180.08Z" fill="#8C7848"/>
<path d="M214.598 159.209C215.391 160.002 215.619 160.956 215.986 162.002C216.062 162.21 216.139 162.417 216.217 162.632C216.288 162.832 216.359 163.032 216.432 163.238C216.497 163.421 216.563 163.604 216.63 163.793C216.738 164.293 216.738 164.293 216.471 165.096C214.861 163.702 214.759 161.209 214.598 159.209Z" fill="#AF9C6E"/>
<path d="M148.773 89.9063C149.984 89.8588 150.902 89.8703 151.984 90.4414C152.252 90.709 152.52 90.9766 152.787 91.2442C153.4 91.6255 154.027 91.9678 154.66 92.3145C154.395 92.4469 154.395 92.4469 154.125 92.582C153.456 92.3057 152.816 92.0151 152.168 91.6957C151.813 91.5236 151.457 91.3518 151.101 91.1804C150.932 91.0988 150.763 91.0172 150.589 90.9331C149.994 90.6539 149.388 90.408 148.773 90.1738C148.773 90.0855 148.773 89.9972 148.773 89.9063Z" fill="#B8A577"/>
<path d="M62.3457 176.602C63.0318 177.24 63.5409 177.936 64.0682 178.709C64.7116 179.641 65.3659 180.547 66.0918 181.418C65.3102 181.068 64.8191 180.68 64.2188 180.08C63.9538 179.992 63.6889 179.903 63.416 179.812C63.1035 179.22 63.1035 179.22 62.8307 178.491C62.7386 178.252 62.6465 178.012 62.5516 177.765C62.3457 177.137 62.3457 177.137 62.3457 176.602Z" fill="#8D7949"/>
<path d="M176.869 84.2871C176.957 84.2871 177.046 84.2871 177.137 84.2871C177.137 85.435 177.137 86.5829 177.137 87.7656C177.313 87.7656 177.49 87.7656 177.672 87.7656C177.848 89.0018 178.025 90.238 178.207 91.5117C176.855 90.1601 176.844 88.705 176.833 86.8884C176.837 86.021 176.85 85.1543 176.869 84.2871Z" fill="#8A7546"/>
<path d="M186.502 77.8652C187.037 77.8652 187.037 77.8652 187.422 78.2279C188.909 79.9719 188.909 79.9719 189.178 81.0762C189.077 81.6949 189.077 81.6949 188.91 82.1465C188.336 81.2854 187.854 80.3968 187.363 79.4864C187.048 78.9024 187.048 78.9024 186.502 78.4004C186.502 78.2238 186.502 78.0472 186.502 77.8652Z" fill="#AA976A"/>
<path d="M154.928 173.123C155.016 173.388 155.104 173.653 155.195 173.926C155.372 173.926 155.549 173.926 155.73 173.926C155.962 174.359 156.19 174.794 156.416 175.23C156.543 175.472 156.671 175.714 156.802 175.964C156.934 176.28 156.934 176.28 157.068 176.602C156.98 176.778 156.892 176.955 156.801 177.137C155.93 176.378 155.591 175.883 155.463 174.729C155.198 174.64 154.933 174.552 154.66 174.461C154.748 174.019 154.837 173.578 154.928 173.123Z" fill="#A49062"/>
<path d="M61.8105 157.604C61.8105 158.568 61.4954 158.917 60.8772 159.629C60.2821 160.192 59.6167 160.501 58.8672 160.814C58.6023 160.638 58.3374 160.461 58.0645 160.279C58.3356 160.124 58.3356 160.124 58.6122 159.966C58.8508 159.826 59.0895 159.687 59.3354 159.543C59.5714 159.407 59.8073 159.27 60.0504 159.13C60.731 158.68 61.2564 158.199 61.8105 157.604Z" fill="#AA9769"/>
<path d="M196.67 152.52C196.847 152.52 197.023 152.52 197.205 152.52C197.422 153.389 197.422 153.389 197.473 154.393C196.747 155.282 196.082 155.519 194.981 155.664C194.492 155.697 194.492 155.697 193.994 155.73C194.583 155.067 195.082 154.764 195.917 154.476C196.109 154.409 196.3 154.342 196.497 154.272C196.643 154.224 196.788 154.175 196.938 154.125C196.849 153.595 196.761 153.065 196.67 152.52Z" fill="#AE9B6E"/>
<path d="M139.943 142.084C140.032 142.084 140.12 142.084 140.211 142.084C140.211 143.055 140.211 144.027 140.211 145.027C140.388 145.027 140.564 145.027 140.746 145.027C141.011 145.734 141.276 146.44 141.549 147.168C140.746 146.9 140.746 146.9 140.424 146.432C139.7 144.876 139.579 143.761 139.943 142.084Z" fill="#B6A173"/>
<path d="M101.68 114.523C101.768 114.523 101.856 114.523 101.947 114.523C101.947 115.406 101.947 116.289 101.947 117.199C101.771 117.199 101.594 117.199 101.412 117.199C101.324 118.435 101.236 119.672 101.145 120.945C101.056 120.945 100.968 120.945 100.877 120.945C100.738 118.712 101.156 116.688 101.68 114.523Z" fill="#8E7849"/>
<path d="M167.504 99.5391C168.554 100.529 169.362 101.559 170.18 102.75C170.091 102.927 170.003 103.103 169.912 103.285C169.042 102.439 168.196 101.609 167.504 100.609C167.504 100.256 167.504 99.903 167.504 99.5391Z" fill="#A69264"/>
<path d="M95.2578 114.791C95.3461 114.791 95.4344 114.791 95.5254 114.791C95.5254 116.557 95.5254 118.323 95.5254 120.143C95.0839 120.143 94.6424 120.143 94.1875 120.143C94.0992 119.966 94.0109 119.789 93.9199 119.607C94.1848 119.607 94.4497 119.607 94.7227 119.607C94.8993 118.018 95.0759 116.429 95.2578 114.791Z" fill="#856F41"/>
<path d="M204.697 171.518C205.053 172.584 204.759 172.963 204.313 173.976C204.186 174.267 204.059 174.557 203.929 174.857C203.779 175.191 203.779 175.191 203.627 175.531C203.33 175.083 203.33 175.083 203.092 174.461C203.255 173.78 203.255 173.78 203.56 173.073C203.658 172.837 203.756 172.602 203.857 172.359C204.162 171.785 204.162 171.785 204.697 171.518Z" fill="#A89465"/>
<path d="M196.135 165.363C196.938 165.631 196.938 165.631 197.239 166.149C197.568 167.301 197.652 168.453 197.74 169.645C197.262 168.927 196.956 168.298 196.636 167.504C196.542 167.272 196.447 167.04 196.35 166.802C196.135 166.166 196.135 166.166 196.135 165.363Z" fill="#958152"/>
<path d="M114.523 172.855C115.145 173.625 115.558 174.364 115.928 175.28C116.023 175.51 116.119 175.739 116.217 175.975C116.396 176.602 116.396 176.602 116.129 177.404C114.921 176.526 114.869 174.897 114.624 173.524C114.591 173.304 114.558 173.083 114.523 172.855Z" fill="#917C4C"/>
<path d="M190.248 169.645C190.425 169.998 190.601 170.351 190.783 170.715C190.96 170.715 191.136 170.715 191.318 170.715C192.142 172.427 192.142 172.427 192.037 173.24C191.977 173.378 191.916 173.516 191.854 173.658C191.254 173.058 191.061 172.586 190.75 171.802C190.655 171.568 190.561 171.333 190.463 171.092C190.248 170.447 190.248 170.447 190.248 169.645Z" fill="#AB9769"/>
<path d="M182.221 96.3281C182.756 96.5957 182.756 96.5957 183.055 97.1591C183.342 98.1018 183.343 98.9062 183.324 99.8903C183.32 100.226 183.315 100.561 183.31 100.907C183.304 101.162 183.297 101.417 183.291 101.68C183.203 101.68 183.114 101.68 183.023 101.68C183.023 100.62 183.023 99.5605 183.023 98.4688C182.759 98.4688 182.494 98.4688 182.221 98.4688C182.221 97.7623 182.221 97.0559 182.221 96.3281Z" fill="#A89466"/>
<path d="M115.059 90.9766C115.235 91.0649 115.412 91.1532 115.594 91.2441C114.36 92.8748 114.36 92.8748 113.453 93.3848C113.1 93.2965 112.747 93.2082 112.383 93.1172C113.266 92.4108 114.149 91.7044 115.059 90.9766Z" fill="#A99568"/>
<path d="M120.945 169.912C121.476 170.708 121.806 171.453 122.166 172.337C122.599 173.411 122.599 173.411 123.086 174.461C122.821 174.461 122.556 174.461 122.283 174.461C122.283 174.284 122.283 174.108 122.283 173.926C122.107 173.926 121.93 173.926 121.748 173.926C121.443 172.592 121.153 171.265 120.945 169.912Z" fill="#B7A478"/>
<path d="M178.475 155.998C179.263 156.732 179.873 157.433 180.348 158.406C180.259 158.671 180.171 158.936 180.08 159.209C179.378 158.574 178.906 157.911 178.475 157.068C178.475 156.715 178.475 156.362 178.475 155.998Z" fill="#A79365"/>
<path d="M167.504 104.891C168.034 105.156 168.034 105.156 168.574 105.426C168.574 105.779 168.574 106.132 168.574 106.496C168.839 106.584 169.104 106.673 169.377 106.764C169.695 107.449 169.695 107.449 169.912 108.102C169.736 108.278 169.559 108.455 169.377 108.637C169.063 108.114 168.752 107.589 168.44 107.065C168.267 106.773 168.093 106.481 167.914 106.18C167.504 105.426 167.504 105.426 167.504 104.891Z" fill="#AD986A"/>
<path d="M221.822 170.18C222.174 171.236 221.903 171.611 221.471 172.621C221.351 172.909 221.23 173.197 221.106 173.493C220.752 174.193 220.752 174.193 220.217 174.461C220.482 173.401 220.747 172.342 221.02 171.25C221.196 171.25 221.373 171.25 221.555 171.25C221.643 170.897 221.731 170.544 221.822 170.18Z" fill="#8C7849"/>
<path d="M73.0488 178.475C74.3793 178.947 75.5733 179.65 76.7949 180.348C76.7066 180.524 76.6183 180.701 76.5273 180.883C76.3618 180.839 76.1962 180.795 76.0256 180.749C75.4676 180.595 75.4676 180.595 74.9219 180.615C74.9219 180.439 74.9219 180.262 74.9219 180.08C74.5041 179.727 74.5041 179.727 73.9854 179.394C73.6691 179.183 73.3558 178.967 73.0488 178.742C73.0488 178.654 73.0488 178.566 73.0488 178.475Z" fill="#B6A376"/>
<path d="M108.637 96.5957C108.637 97.5912 108.419 97.9366 107.834 98.7363C106.981 99.3551 106.981 99.3551 106.229 99.8066C106.615 98.9401 107.1 98.3029 107.734 97.5991C107.903 97.4101 108.072 97.2211 108.246 97.0263C108.375 96.8842 108.504 96.7421 108.637 96.5957Z" fill="#AB986B"/>
<path d="M176.602 94.1875C176.778 94.1875 176.955 94.1875 177.137 94.1875C177.137 94.3641 177.137 94.5407 177.137 94.7227C177.297 94.7944 177.457 94.8661 177.622 94.9401C178.219 95.2645 178.608 95.5111 179.01 96.0605C178.896 96.6229 178.896 96.6229 178.742 97.1309C178.434 96.7922 178.128 96.4518 177.822 96.1107C177.652 95.9214 177.481 95.732 177.305 95.5369C176.869 94.9902 176.869 94.9902 176.602 94.1875Z" fill="#A69163"/>
<path d="M179.545 93.1172C180.615 93.9121 181.397 94.7573 182.221 95.793C182.132 95.9696 182.044 96.1462 181.953 96.3281C180.705 95.3874 179.887 94.7129 179.545 93.1172Z" fill="#AE9B6D"/>
<path d="M152.52 88.0332C153.82 88.1957 154.858 88.763 155.998 89.3711C155.998 89.4594 155.998 89.5477 155.998 89.6387C155.661 89.6056 155.325 89.5724 154.978 89.5383C154.694 89.5104 154.694 89.5104 154.404 89.4819C153.857 89.3711 153.857 89.3711 153.055 88.8359C153.055 88.6593 153.055 88.4827 153.055 88.3008C152.878 88.2125 152.701 88.1242 152.52 88.0332Z" fill="#AD9A6B"/>
<path d="M146.9 86.1602C148.23 86.2977 149.386 86.4903 150.646 86.9629C150.245 87.2639 150.245 87.2639 149.576 87.498C148.833 87.3846 148.159 87.1799 147.436 86.9629C147.436 86.7863 147.436 86.6097 147.436 86.4277C147.259 86.3394 147.082 86.2511 146.9 86.1602Z" fill="#AD996B"/>
<path d="M96.0605 90.4414C96.2371 90.7946 96.4137 91.1478 96.5957 91.5117C95.8867 92.4833 95.2529 93.09 94.1875 93.6523C94.5575 92.8847 94.9692 92.1645 95.425 91.4448C95.5444 91.2558 95.6637 91.0668 95.7867 90.872C95.8771 90.7299 95.9674 90.5878 96.0605 90.4414Z" fill="#AC996B"/>
<path d="M174.193 182.221C173.719 182.822 173.502 183.01 172.727 183.102C172.368 183.088 172.368 183.088 172.003 183.074C171.641 183.063 171.641 183.063 171.272 183.052C171.088 183.042 170.904 183.033 170.715 183.023C173.036 181.835 173.036 181.835 174.193 182.221Z" fill="#94804F"/>
<path d="M54.5859 179.812C54.9391 179.901 55.2923 179.989 55.6562 180.08C55.6897 181.886 55.6897 181.886 55.3887 182.488C54.9472 182.488 54.5057 182.488 54.0508 182.488C54.1777 182.389 54.3046 182.29 54.4354 182.187C54.9932 181.518 55.0264 180.932 55.1211 180.08C54.9445 179.992 54.7679 179.903 54.5859 179.812Z" fill="#A49163"/>
<path d="M157.336 178.207C159.338 179.853 159.338 179.853 160.012 180.883C159.326 180.589 158.916 180.321 158.39 179.779C157.895 179.184 157.895 179.184 157.068 179.277C156.892 179.101 156.715 178.924 156.533 178.742C156.798 178.742 157.063 178.742 157.336 178.742C157.336 178.566 157.336 178.389 157.336 178.207Z" fill="#BDAA7E"/>
<path d="M113.721 171.785C114.533 172.713 115.041 173.8 115.326 174.996C115.238 175.261 115.15 175.526 115.059 175.799C114.794 175.622 114.529 175.446 114.256 175.264C114.169 174.734 114.085 174.204 114.037 173.67C113.98 173.03 113.858 172.412 113.721 171.785Z" fill="#C1AE82"/>
<path d="M196.938 152.787C197.026 153.229 197.114 153.67 197.205 154.125C196.94 154.302 196.675 154.478 196.402 154.66C196.402 154.219 196.402 153.777 196.402 153.322C195.431 153.234 194.46 153.146 193.459 153.055C193.459 152.966 193.459 152.878 193.459 152.787C193.888 152.735 194.317 152.685 194.747 152.637C194.986 152.609 195.225 152.581 195.471 152.552C196.135 152.52 196.135 152.52 196.938 152.787Z" fill="#8A7647"/>
<path d="M229.85 158.941C230.174 159.916 230.028 160.1 229.599 160.998C229.497 161.215 229.395 161.431 229.29 161.654C229.21 161.818 229.13 161.983 229.047 162.152C228.959 162.152 228.87 162.152 228.779 162.152C228.727 161.031 228.797 160.215 229.314 159.209C229.491 159.121 229.668 159.032 229.85 158.941Z" fill="#A89569"/>
<path d="M161.082 97.1309C161.98 97.2912 162.521 97.6249 163.223 98.2012C163.134 98.5544 163.046 98.9076 162.955 99.2715C162.845 99.1501 162.734 99.0287 162.621 98.9036C162.135 98.4528 161.683 98.2031 161.082 97.9336C161.082 97.6687 161.082 97.4038 161.082 97.1309Z" fill="#AA9667"/>
<path d="M79.7383 181.418C80.1348 181.538 80.5305 181.661 80.9257 181.786C81.1461 181.854 81.3665 181.922 81.5936 181.993C82.1465 182.221 82.1465 182.221 82.4141 182.756C82.9537 183.059 82.9537 183.059 83.4844 183.291C82.3453 183.386 81.7862 183.159 80.8588 182.505C80.6473 182.359 80.4359 182.213 80.218 182.063C80.0597 181.938 79.9014 181.814 79.7383 181.686C79.7383 181.597 79.7383 181.509 79.7383 181.418Z" fill="#B4A073"/>
<path d="M181.686 125.494C181.95 125.627 181.95 125.627 182.221 125.762C182.221 125.938 182.221 126.115 182.221 126.297C182.397 126.297 182.574 126.297 182.756 126.297C182.756 126.473 182.756 126.65 182.756 126.832C183.374 126.655 183.992 126.479 184.629 126.297C184.541 126.562 184.452 126.827 184.361 127.1C183.743 127.188 183.125 127.276 182.488 127.367C181.686 126.397 181.686 126.397 181.686 125.494Z" fill="#A59163"/>
<path d="M105.961 99.8066C106.162 100.258 106.162 100.258 106.229 100.877C105.658 101.754 105.359 102.148 104.355 102.482C104.722 101.413 105.227 100.663 105.961 99.8066Z" fill="#A69365"/>
<path d="M127.1 163.758C127.276 163.846 127.453 163.934 127.635 164.025C127.546 164.29 127.458 164.555 127.367 164.828C127.34 165.054 127.312 165.281 127.284 165.514C127.1 166.166 127.1 166.166 126.553 166.474C126.38 166.549 126.207 166.624 126.029 166.701C126.157 166.311 126.285 165.921 126.414 165.531C126.485 165.313 126.557 165.096 126.63 164.872C126.832 164.293 126.832 164.293 127.1 163.758Z" fill="#AF9B6D"/>
<path d="M123.621 90.709C123.143 90.9401 122.663 91.1681 122.183 91.3947C121.916 91.5219 121.649 91.6492 121.374 91.7803C121.144 91.8683 120.914 91.9563 120.678 92.0469C120.501 91.9586 120.325 91.8703 120.143 91.7793C120.407 91.5144 120.672 91.2495 120.945 90.9766C121.122 91.0649 121.299 91.1532 121.48 91.2441C121.48 91.0675 121.48 90.8909 121.48 90.709C122.36 90.4951 122.741 90.4156 123.621 90.709Z" fill="#B7A475"/>
<path d="M123.086 87.7656C122.748 87.9528 122.407 88.136 122.066 88.3175C121.876 88.4199 121.687 88.5224 121.492 88.6279C120.945 88.8359 120.945 88.8359 120.143 88.5684C120.655 87.9133 120.938 87.7674 121.765 87.5649C122.551 87.498 122.551 87.498 123.086 87.7656Z" fill="#968151"/>
<path d="M143.689 83.4844C143.957 84.2871 143.957 84.2871 143.957 85.0898C144.575 85.2664 145.193 85.443 145.83 85.625C144.873 85.9563 144.134 85.8255 143.154 85.625C143.388 84.0864 143.388 84.0864 143.689 83.4844Z" fill="#CBBA8F"/>
<path d="M71.4434 176.602C71.8407 176.866 71.8407 176.866 72.2461 177.137C72.2461 177.313 72.2461 177.49 72.2461 177.672C72.511 177.76 72.7759 177.848 73.0488 177.939C73.0488 178.204 73.0488 178.469 73.0488 178.742C72.3884 178.434 71.9657 178.194 71.4434 177.672C71.4434 177.319 71.4434 176.965 71.4434 176.602Z" fill="#A39062"/>
<path d="M223.695 173.391C223.784 173.391 223.872 173.391 223.963 173.391C223.996 174.929 223.996 174.929 223.695 175.531C223.519 175.531 223.342 175.531 223.16 175.531C222.984 175.884 222.807 176.238 222.625 176.602C222.803 175.427 223.21 174.466 223.695 173.391Z" fill="#927E4E"/>
<path d="M118.805 164.025C119.287 164.748 119.608 165.345 119.875 166.166C119.787 166.431 119.698 166.696 119.607 166.969C119.431 166.88 119.254 166.792 119.072 166.701C118.762 165.772 118.786 164.999 118.805 164.025Z" fill="#AB976A"/>
<path d="M173.123 108.904C173.664 109.445 173.839 109.776 174.11 110.476C174.183 110.658 174.255 110.839 174.33 111.026C174.481 111.663 174.399 112.036 174.193 112.65C174.105 112.209 174.017 111.767 173.926 111.312C173.749 111.312 173.573 111.312 173.391 111.312C173.245 110.494 173.123 109.737 173.123 108.904Z" fill="#B9A77A"/>
<path d="M188.643 90.4414C188.91 90.9766 188.91 90.9766 188.761 91.5556C188.683 91.7729 188.605 91.9902 188.526 92.2141C188.449 92.4328 188.372 92.6515 188.292 92.8768C188.231 93.0444 188.17 93.2121 188.107 93.3848C187.843 93.2965 187.578 93.2082 187.305 93.1172C187.662 92.1555 188.097 91.3097 188.643 90.4414Z" fill="#B4A075"/>
<path d="M197.473 167.771C198.072 168.37 198.249 168.859 198.543 169.645C198.631 169.821 198.72 169.998 198.811 170.18C198.634 170.356 198.457 170.533 198.275 170.715C198.099 170.627 197.922 170.538 197.74 170.447C197.629 169.836 197.629 169.836 197.573 169.093C197.553 168.847 197.533 168.601 197.512 168.347C197.499 168.157 197.486 167.967 197.473 167.771Z" fill="#B4A173"/>
<path d="M128.17 161.082C128.258 161.082 128.347 161.082 128.437 161.082C128.536 162.827 128.536 162.827 128.036 163.474C127.904 163.567 127.771 163.661 127.635 163.758C127.262 162.64 127.682 162.116 128.17 161.082Z" fill="#A69263"/>
<path d="M158.139 156.801C158.139 157.709 157.999 157.889 157.47 158.59C157.346 158.757 157.221 158.923 157.093 159.095C156.997 159.221 156.9 159.347 156.801 159.477C156.627 158.986 156.627 158.986 156.533 158.406C157.169 157.687 157.169 157.687 157.871 157.068C157.959 156.98 158.048 156.892 158.139 156.801Z" fill="#937F4E"/>
<path d="M59.4023 144.76C60.1215 144.659 60.1215 144.659 61.0078 144.76C61.5601 145.248 61.915 145.757 62.3457 146.365C62.2574 146.542 62.1691 146.718 62.0781 146.9C61.8353 146.696 61.5925 146.492 61.3423 146.282C60.7096 145.754 60.0678 145.246 59.4023 144.76Z" fill="#B9A77A"/>
<path d="M104.088 102.482C104.353 102.571 104.618 102.659 104.891 102.75C104.562 103.737 104.104 104.014 103.285 104.623C103.197 104.446 103.109 104.27 103.018 104.088C103.371 103.558 103.724 103.028 104.088 102.482Z" fill="#A79467"/>
<path d="M124.691 86.9629C124.603 87.1395 124.515 87.3161 124.424 87.498C123.402 87.7063 122.747 87.8309 121.748 87.498C122.087 87.3556 122.427 87.217 122.768 87.08C122.958 87.0023 123.147 86.9247 123.342 86.8448C123.889 86.6953 123.889 86.6953 124.691 86.9629Z" fill="#B29F72"/>
<path d="M67.4297 169.912C68.2246 170.593 68.6278 171.363 69.0352 172.32C68.9469 172.497 68.8586 172.674 68.7676 172.855C67.7481 172.114 67.679 171.082 67.4297 169.912Z" fill="#B39F71"/>
<path d="M58.0645 168.842C58.8672 169.109 58.8672 169.109 59.1849 169.578C59.4313 170.26 59.4423 170.798 59.4023 171.518C58.6947 170.681 58.3737 169.889 58.0645 168.842Z" fill="#AB976B"/>
<path d="M203.627 165.096C203.928 165.547 203.928 165.547 204.162 166.166C203.978 166.885 203.978 166.885 203.627 167.504C203.362 167.592 203.097 167.681 202.824 167.771C202.987 166.819 203.247 165.983 203.627 165.096Z" fill="#A99568"/>
<path d="M204.697 163.223C204.881 163.657 204.881 163.657 204.965 164.293C204.58 165.163 204.58 165.163 204.162 165.898C204.074 165.898 203.985 165.898 203.895 165.898C203.861 164.36 203.861 164.36 204.162 163.758C204.339 163.758 204.515 163.758 204.697 163.758C204.697 163.581 204.697 163.405 204.697 163.223Z" fill="#947F4F"/>
<path d="M135.445 155.279C135.685 155.37 135.685 155.37 135.93 155.463C135.305 156.087 134.681 156.712 134.057 157.336C133.995 156.575 133.961 156.142 134.391 155.496C134.859 155.195 134.859 155.195 135.445 155.279Z" fill="#AA9667"/>
<path d="M216.203 152.787C216.556 152.875 216.91 152.964 217.273 153.055C217.185 153.584 217.097 154.114 217.006 154.66C216.741 154.66 216.476 154.66 216.203 154.66C216.291 154.484 216.38 154.307 216.471 154.125C216.396 153.676 216.308 153.23 216.203 152.787Z" fill="#A69366"/>
<path d="M129.24 88.0332C129.329 88.2981 129.417 88.563 129.508 88.8359C128.625 88.9242 127.742 89.0125 126.832 89.1035C127.097 89.0152 127.362 88.9269 127.635 88.8359C127.635 88.6593 127.635 88.4827 127.635 88.3008C128.438 88.0332 128.438 88.0332 129.24 88.0332Z" fill="#8B7749"/>
<path d="M178.475 74.9219C178.563 75.2751 178.651 75.6283 178.742 75.9922C178.301 76.3454 177.859 76.6986 177.404 77.0625C177.404 76.0167 177.807 75.6936 178.475 74.9219Z" fill="#A9976B"/>
<path d="M180.348 73.3164C180.524 73.4047 180.701 73.493 180.883 73.584C180.795 73.9372 180.706 74.2904 180.615 74.6543C179.997 74.7426 179.379 74.8309 178.742 74.9219C179.277 74.3867 179.812 73.8516 180.348 73.3164Z" fill="#AF9D72"/>
<path d="M161.617 181.953C162.412 182.041 163.207 182.13 164.025 182.221C164.025 182.397 164.025 182.574 164.025 182.756C164.202 182.844 164.379 182.932 164.561 183.023C164.17 182.948 163.78 182.869 163.39 182.789C163.173 182.746 162.955 182.702 162.731 182.658C162.152 182.488 162.152 182.488 161.617 181.953Z" fill="#AE9A6D"/>
<path d="M176.334 181.418C174.923 182.28 174.923 182.28 174.461 182.488C174.284 182.4 174.108 182.312 173.926 182.221C174.772 181.336 175.129 181.057 176.334 181.418Z" fill="#A69363"/>
<path d="M112.65 169.109C112.827 169.463 113.004 169.816 113.186 170.18C113.362 170.18 113.539 170.18 113.721 170.18C113.809 170.621 113.897 171.063 113.988 171.518C113.723 171.65 113.723 171.65 113.453 171.785C112.65 170.012 112.65 170.012 112.65 169.109Z" fill="#AF9B6F"/>
<path d="M66.0918 167.504C66.9228 168.335 67.1121 168.813 67.4297 169.912C67.1648 169.912 66.8999 169.912 66.627 169.912C66.4504 169.117 66.2738 168.323 66.0918 167.504Z" fill="#AC996B"/>
<path d="M83.4844 167.236C83.661 167.325 83.8376 167.413 84.0195 167.504C83.8429 167.857 83.6663 168.21 83.4844 168.574C83.0429 168.486 82.6014 168.398 82.1465 168.307C82.5837 167.85 82.9142 167.521 83.4844 167.236Z" fill="#A48F61"/>
<path d="M188.375 165.096C188.552 165.449 188.728 165.802 188.91 166.166C189.087 166.166 189.263 166.166 189.445 166.166C189.659 167.046 189.739 167.426 189.445 168.307C189.265 167.923 189.087 167.538 188.91 167.153C188.811 166.939 188.711 166.724 188.609 166.504C188.375 165.898 188.375 165.898 188.375 165.096Z" fill="#B5A375"/>
<path d="M173.658 151.984C173.747 152.161 173.835 152.338 173.926 152.52C174.455 152.714 174.991 152.894 175.531 153.055C175.03 153.339 175.03 153.339 174.461 153.59C174.284 153.502 174.108 153.413 173.926 153.322C173.837 153.057 173.749 152.792 173.658 152.52C173.482 152.431 173.305 152.343 173.123 152.252C173.3 152.164 173.476 152.075 173.658 151.984Z" fill="#AF9A6C"/>
<path d="M39.6016 143.422C41.2217 143.37 41.2217 143.37 41.7422 143.422C42.2773 143.957 42.2773 143.957 42.2773 144.492C41.881 144.417 41.4853 144.338 41.09 144.258C40.8696 144.215 40.6492 144.171 40.4221 144.126C40.2396 144.07 40.0571 144.015 39.8691 143.957C39.7808 143.78 39.6925 143.604 39.6016 143.422Z" fill="#AE9C70"/>
<path d="M104.891 181.15C105.067 181.15 105.244 181.15 105.426 181.15C104.924 182.187 104.924 182.187 104.623 182.488C104.177 182.499 103.731 182.5 103.285 182.488C103.5 182.317 103.716 182.146 103.937 181.97C104.429 181.577 104.429 181.577 104.891 181.15Z" fill="#958151"/>
<path d="M203.092 174.729C203.18 174.729 203.268 174.729 203.359 174.729C203.458 176.21 203.458 176.21 202.958 176.836C202.826 176.935 202.693 177.034 202.557 177.137C202.468 176.96 202.38 176.784 202.289 176.602C202.539 175.97 202.806 175.345 203.092 174.729Z" fill="#958050"/>
<path d="M206.303 167.504C206.675 168.621 206.255 169.145 205.768 170.18C205.679 170.18 205.591 170.18 205.5 170.18C205.467 168.641 205.467 168.641 205.768 168.039C205.944 168.039 206.121 168.039 206.303 168.039C206.303 167.862 206.303 167.686 206.303 167.504Z" fill="#AC996A"/>
<path d="M54.8535 163.758C55.5158 163.89 55.5158 163.89 56.1914 164.025C56.2797 164.555 56.368 165.085 56.459 165.631C56.0909 165.286 55.7345 164.928 55.3887 164.561C55.3887 164.384 55.3887 164.207 55.3887 164.025C55.2121 163.937 55.0355 163.849 54.8535 163.758Z" fill="#A18D5F"/>
<path d="M138.873 155.998C140.177 157.236 140.177 157.236 140.479 158.139C139.977 158.055 139.977 158.055 139.408 157.871C138.873 157.068 138.873 157.068 138.873 155.998Z" fill="#A59060"/>
<path d="M99.8066 154.928C100.556 155.604 100.999 156.053 101.145 157.068C100.342 156.801 100.342 156.801 99.8066 155.998C99.8066 155.645 99.8066 155.292 99.8066 154.928Z" fill="#A28E60"/>
<path d="M103.553 109.439C103.729 109.439 103.906 109.439 104.088 109.439C103.925 110.391 103.666 111.228 103.285 112.115C102.989 111.226 103.058 110.862 103.285 109.975C103.373 109.798 103.462 109.621 103.553 109.439Z" fill="#B3A072"/>
<path d="M170.715 104.088C171.291 104.789 171.625 105.331 171.785 106.229C171.52 106.317 171.255 106.405 170.982 106.496C170.894 105.701 170.806 104.907 170.715 104.088Z" fill="#A49062"/>
<path d="M156.801 90.1738C157.704 90.4911 158.312 90.7828 158.941 91.5117C158.412 91.5117 157.882 91.5117 157.336 91.5117C157.159 91.0702 156.983 90.6287 156.801 90.1738Z" fill="#AB9768"/>
<path d="M64.2188 163.758C64.7951 164.459 65.1287 165 65.2891 165.898C65.0242 165.81 64.7593 165.722 64.4863 165.631C64.1686 164.811 64.1686 164.811 63.9512 164.025C64.0395 163.937 64.1278 163.849 64.2188 163.758Z" fill="#A59162"/>
<path d="M96.8633 152.787C98.4019 153.222 98.4019 153.222 99.0039 154.125C98.024 153.993 97.4868 153.842 96.8633 153.055C96.8633 152.966 96.8633 152.878 96.8633 152.787Z" fill="#A79264"/>
<path d="M109.707 163.49C109.884 163.755 110.06 164.02 110.242 164.293C109.889 164.381 109.536 164.47 109.172 164.561C109.172 164.384 109.172 164.207 109.172 164.025C109.348 164.025 109.525 164.025 109.707 164.025C109.707 163.849 109.707 163.672 109.707 163.49Z" fill="#B29D6E"/>
<path d="M62.3457 178.475C62.5223 178.651 62.6989 178.828 62.8809 179.01C62.4835 179.275 62.4835 179.275 62.0781 179.545C62.1664 179.192 62.2547 178.839 62.3457 178.475Z" fill="#B09C6F"/>
<path d="M91.2441 168.307C91.3324 168.483 91.4207 168.66 91.5117 168.842C91.1585 168.753 90.8053 168.665 90.4414 168.574C90.7063 168.486 90.9712 168.398 91.2441 168.307Z" fill="#B3A071"/>
<path d="M128.438 84.8223C128.879 84.8223 129.321 84.8223 129.775 84.8223C129.775 84.9106 129.775 84.9989 129.775 85.0898C129.334 85.0898 128.892 85.0898 128.438 85.0898C128.438 85.0015 128.438 84.9132 128.438 84.8223Z" fill="#B7A579"/>
<path d="M167.771 166.701C168.842 166.969 168.842 166.969 168.842 166.969L167.771 166.701Z" fill="#B7A173"/>
<path d="M51.9102 164.561C52.9805 164.828 52.9805 164.828 52.9805 164.828L51.9102 164.561Z" fill="#B09A6B"/>
<path d="M38.5312 141.549C38.7988 142.619 38.7988 142.619 38.7988 142.619L38.5312 141.549Z" fill="#A7956D"/>
<path d="M184.094 124.424C184.27 124.424 184.447 124.424 184.629 124.424C184.541 124.689 184.452 124.954 184.361 125.227C184.273 124.962 184.185 124.697 184.094 124.424Z" fill="#B7A475"/>
<path d="M184.361 122.551C184.629 123.621 184.629 123.621 184.629 123.621L184.361 122.551Z" fill="#B6A373"/>
<path d="M173.658 86.4277C173.926 87.498 173.926 87.498 173.926 87.498L173.658 86.4277Z" fill="#B7A477"/>
<path d="M218.344 183.291C219.146 183.559 219.146 183.559 219.146 183.559L218.344 183.291Z" fill="#A9966D"/>
<path d="M143.689 183.291C144.492 183.559 144.492 183.559 144.492 183.559L143.689 183.291Z" fill="#AF9B6F"/>
<path d="M70.9082 183.291C71.7109 183.559 71.7109 183.559 71.7109 183.559L70.9082 183.291Z" fill="#B09B6F"/>
<path d="M174.729 166.701C175.531 166.969 175.531 166.969 175.531 166.969L174.729 166.701Z" fill="#B49E6F"/>
<path d="M173.658 166.701C174.461 166.969 174.461 166.969 174.461 166.969L173.658 166.701Z" fill="#B5A070"/>
<path d="M172.053 166.701C172.855 166.969 172.855 166.969 172.855 166.969L172.053 166.701Z" fill="#B6A071"/>
<path d="M164.828 166.701C165.631 166.969 165.631 166.969 165.631 166.969L164.828 166.701Z" fill="#B49D6E"/>
<path d="M92.0469 163.758C92.8496 164.025 92.8496 164.025 92.8496 164.025L92.0469 163.758Z" fill="#B39F71"/>
<path d="M181.418 161.082C181.683 161.214 181.683 161.214 181.953 161.35C181.688 161.482 181.688 161.482 181.418 161.617C181.418 161.441 181.418 161.264 181.418 161.082Z" fill="#B6A070"/>
<path d="M104.623 155.73C104.711 155.907 104.8 156.084 104.891 156.266C104.714 156.177 104.537 156.089 104.355 155.998C104.444 155.91 104.532 155.821 104.623 155.73Z" fill="#B39E71"/>
<path d="M166.969 155.463C167.771 155.73 167.771 155.73 167.771 155.73L166.969 155.463Z" fill="#B8A375"/>
<path d="M180.08 129.775C180.883 130.043 180.883 130.043 180.883 130.043L180.08 129.775Z" fill="#B9A378"/>
<path d="M128.705 84.0195C128.882 84.1961 129.058 84.3727 129.24 84.5547C129.064 84.5547 128.887 84.5547 128.705 84.5547C128.705 84.3781 128.705 84.2015 128.705 84.0195Z" fill="#B6A276"/>
<path d="M137.268 78.4004C137.532 78.5328 137.532 78.5328 137.803 78.668C137.538 78.8004 137.538 78.8004 137.268 78.9355C137.268 78.7589 137.268 78.5823 137.268 78.4004Z" fill="#B6A276"/>
<path d="M85.8926 183.826C86.4277 184.094 86.4277 184.094 86.4277 184.094L85.8926 183.826Z" fill="#AC9A6B"/>
<path d="M120.143 183.291C120.678 183.559 120.678 183.559 120.678 183.559L120.143 183.291Z" fill="#B09D6F"/>
<path d="M175.799 176.334C176.334 176.602 176.334 176.602 176.334 176.602L175.799 176.334Z" fill="#AF9B6C"/>
<path d="M53.5156 160.547C54.0508 160.814 54.0508 160.814 54.0508 160.814L53.5156 160.547Z" fill="#AE9A6D"/>
<path d="M202.557 155.73C203.092 155.998 203.092 155.998 203.092 155.998L202.557 155.73Z" fill="#B49F72"/>
<path d="M90.9766 150.914C91.5117 151.182 91.5117 151.182 91.5117 151.182L90.9766 150.914Z" fill="#B7A271"/>
<path d="M52.4453 144.492C52.9805 144.76 52.9805 144.76 52.9805 144.76L52.4453 144.492Z" fill="#B19D6F"/>
<path d="M119.875 87.7656C120.41 88.0332 120.41 88.0332 120.41 88.0332L119.875 87.7656Z" fill="#B7A375"/>
<path d="M128.973 83.752C129.508 84.0195 129.508 84.0195 129.508 84.0195L128.973 83.752Z" fill="#B5A075"/>
</svg>
