<svg width="245" height="188" viewBox="0 0 245 188" fill="none" xmlns="http://www.w3.org/2000/svg">
<path fill-rule="evenodd" clip-rule="evenodd" d="M152.135 -168.543C142.524 -152.554 131.136 -130.926 131.892 -108.231C132.129 -101.124 133.556 -93.9186 136.595 -86.7536C136.9 -81.4026 137.893 -76.0015 139.755 -70.6093C139.759 -70.0752 139.77 -69.5404 139.788 -69.0051C139.923 -64.961 140.443 -60.8851 141.426 -56.8029C141.312 -54.807 141.283 -52.7995 141.35 -50.7835C141.371 -50.1594 141.401 -49.5345 141.44 -48.9089C132.837 -33.7515 124.21 -14.72 124.871 5.12742C125.629 27.8563 138.563 51.5919 177.441 71.7875C222.711 95.3036 257.92 92.1003 285.008 89.6358C287.522 89.4071 289.967 89.1847 292.343 88.9906C306.34 87.8474 317.892 87.6964 327.425 92.9299C336.947 98.1579 344.525 108.802 350.434 129.43L351.006 129.292C345.083 108.617 337.449 97.7962 327.722 92.4562C318.005 87.1218 306.27 87.2999 292.286 88.442C289.908 88.6363 287.462 88.8587 284.948 89.0874C257.875 91.5496 222.829 94.7369 177.725 71.3072C138.993 51.187 126.212 27.6118 125.462 5.11535C124.817 -14.2475 133.081 -32.858 141.516 -47.8549C141.55 -47.4308 141.588 -47.0065 141.631 -46.582C141.517 -45.8211 141.414 -45.058 141.323 -44.2928C136.075 -32.4715 132.193 -19.2949 132.644 -5.73752C133.402 16.9914 146.336 40.7269 185.214 60.9225C230.484 84.4387 265.693 81.2354 292.781 78.7709C295.295 78.5421 297.74 78.3197 300.116 78.1256C314.113 76.9824 325.665 76.8315 335.198 82.065C344.721 87.293 352.299 97.9374 358.207 118.565L358.779 118.427C352.856 97.7519 345.222 86.9313 335.495 81.5913C325.778 76.2568 314.043 76.4349 300.059 77.5771C297.681 77.7713 295.235 77.9938 292.721 78.2224C265.648 80.6847 230.602 83.872 185.498 60.4422C146.766 40.322 133.985 16.7469 133.236 -5.74959C132.809 -18.5559 136.279 -31.033 141.118 -42.3533L141.109 -42.2535L141.094 -42.0792C138.973 -34.5808 137.745 -26.7542 138.01 -18.7965C138.767 3.93243 151.702 27.668 190.579 47.8636C235.849 71.3798 271.059 68.1764 298.146 65.712L298.153 65.7114C300.665 65.4828 303.107 65.2606 305.482 65.0667C319.479 63.9235 331.03 63.7725 340.563 69.0061C350.086 74.234 357.664 84.8784 363.573 105.506L364.144 105.368C358.222 84.693 350.587 73.8724 340.86 68.5324C331.144 63.1979 319.408 63.376 305.425 64.5182C303.046 64.7124 300.601 64.9348 298.087 65.1635C271.013 67.6257 235.967 70.8131 190.864 47.3833C152.131 27.2631 139.351 3.68793 138.601 -18.8085C138.372 -25.6822 139.266 -32.461 140.891 -39.017C140.817 -37.3254 140.805 -35.6258 140.862 -33.9202C141.619 -11.1913 154.553 12.5443 193.431 32.7399C238.701 56.2561 273.91 53.0527 300.998 50.5883L301.002 50.588C303.515 50.3593 305.958 50.137 308.333 49.943C322.33 48.7998 333.882 48.6488 343.415 53.8823C352.938 59.1103 360.516 69.7547 366.425 90.3821L366.996 90.2448C361.073 69.5693 353.439 58.7487 343.712 53.4087C333.995 48.0742 322.26 48.2523 308.276 49.3945C305.899 49.5887 303.454 49.811 300.94 50.0396L300.938 50.0398C273.865 52.502 238.819 55.6894 193.716 32.2596C154.983 12.1394 142.203 -11.4358 141.453 -33.9322C141.363 -36.6326 141.446 -39.3183 141.679 -41.9817C141.802 -42.4151 141.928 -42.8475 142.056 -43.2787C145.255 -22.8934 159.304 -2.10526 193.92 15.8765C239.19 39.3927 274.399 36.1893 301.487 33.7249L301.499 33.7238L301.509 33.7228L301.526 33.7213L301.53 33.721C304.029 33.4936 306.459 33.2726 308.822 33.0796C322.819 31.9364 334.371 31.7855 343.904 37.019C353.426 42.247 361.004 52.8914 366.913 73.5187L367.485 73.3814C361.562 52.7059 353.927 41.8853 344.201 36.5453C334.484 31.2108 322.749 31.3889 308.765 32.5311C306.387 32.7253 303.941 32.9477 301.427 33.1764C274.354 35.6386 239.308 38.826 194.204 15.3962C159.015 -2.88313 145.247 -24.0142 142.46 -44.5972C142.744 -45.5039 143.041 -46.4054 143.349 -47.3014C143.569 -47.7655 143.79 -48.2274 144.014 -48.6869C150.469 -32.5426 164.981 -16.5662 192.357 -2.34503C237.627 21.1711 272.837 17.9678 299.925 15.5033C302.439 15.2746 304.884 15.0522 307.26 14.8581C321.257 13.7149 332.809 13.5639 342.341 18.7974C351.864 24.0254 359.442 34.6698 365.351 55.2972L365.922 55.1598C360 34.4844 352.365 23.6638 342.638 18.3237C332.922 12.9893 321.187 13.1674 307.203 14.3095C304.824 14.5038 302.379 14.7262 299.865 14.9549C272.792 17.4171 237.746 20.6045 192.642 -2.82531C165.077 -17.1446 150.656 -33.2138 144.362 -49.3987C145.376 -51.4619 146.421 -53.4763 147.479 -55.4362C155.594 -43.6189 168.815 -32.1195 189.098 -21.5836C234.367 1.93259 269.577 -1.27075 296.665 -3.73522L296.669 -3.7356L296.676 -3.73628C299.187 -3.96466 301.627 -4.18669 304 -4.38045C317.997 -5.52368 329.549 -5.67462 339.082 -0.441118C348.604 4.78687 356.182 15.4313 362.091 36.0586L362.663 35.9213C356.74 15.2458 349.105 4.42521 339.379 -0.914794C329.662 -6.24928 317.927 -6.07116 303.943 -4.92901C301.565 -4.73477 299.119 -4.51236 296.605 -4.28369C269.532 -1.82146 234.486 1.3659 189.382 -22.0639C169.018 -32.6425 155.827 -44.1763 147.788 -56.0062C149.316 -58.8164 150.867 -61.5121 152.388 -64.0762C160.252 -56.2669 170.741 -48.6986 184.461 -41.5712C229.731 -18.0551 264.941 -21.2584 292.029 -23.7229L292.033 -23.7233L292.04 -23.7239C294.551 -23.9523 296.991 -24.1744 299.364 -24.3681C313.361 -25.5113 324.913 -25.6623 334.445 -20.4288C343.968 -15.2008 351.546 -4.55638 357.455 16.071L358.026 15.9336C352.104 -4.74183 344.469 -15.5625 334.742 -20.9025C325.026 -26.2369 313.291 -26.0588 299.307 -24.9167C296.929 -24.7224 294.484 -24.5001 291.97 -24.2714L291.969 -24.2713C264.896 -21.8091 229.85 -18.6218 184.746 -42.0515C170.998 -49.1933 160.519 -56.7703 152.688 -64.58C152.928 -64.9824 153.167 -65.3815 153.404 -65.7772L152.888 -66.0494C152.68 -65.7044 152.472 -65.3567 152.263 -65.0065C151.986 -65.2866 151.712 -65.567 151.442 -65.8477C153.847 -70.4769 156.362 -74.8301 158.77 -78.8361L158.253 -79.1084C155.879 -75.1583 153.396 -70.864 151.014 -66.2945C150.194 -67.1584 149.405 -68.025 148.647 -68.894C152.443 -78.1228 157.212 -86.6233 161.622 -93.9598L161.105 -94.2321C156.741 -86.9719 152.01 -78.5489 148.216 -69.3913C147.035 -70.7681 145.93 -72.1508 144.898 -73.5382C148.783 -87.4944 155.812 -100.346 162.11 -110.823L161.593 -111.095C155.364 -100.731 148.387 -87.9981 144.455 -74.1407C143.139 -75.9493 141.947 -77.7657 140.87 -79.5875C143.155 -98.198 152.455 -115.581 160.548 -129.045L160.031 -129.317C152.049 -116.038 142.84 -98.8683 140.382 -80.4287C139.16 -82.5697 138.097 -84.7177 137.181 -86.8687C137.155 -87.3315 137.135 -87.7938 137.119 -88.2557C136.368 -110.786 147.68 -132.298 157.288 -148.283L156.771 -148.556C147.195 -132.623 135.852 -111.091 136.521 -88.484C133.933 -95.0874 132.701 -101.711 132.483 -108.243C131.732 -130.774 143.043 -152.286 152.652 -168.271L152.135 -168.543ZM142.867 -50.2259C142.626 -49.0121 142.411 -47.7917 142.226 -46.5654C142.234 -46.4894 142.242 -46.4134 142.25 -46.3374C142.431 -46.7278 142.613 -47.1166 142.796 -47.5038C143.056 -48.2584 143.323 -49.0091 143.598 -49.7555C143.465 -50.1089 143.335 -50.4625 143.209 -50.8161C143.095 -50.62 142.981 -50.4233 142.867 -50.2259ZM143.596 -51.4811C143.699 -51.1858 143.803 -50.8904 143.911 -50.5951C144.719 -52.7377 145.585 -54.8446 146.494 -56.9107C146.018 -57.6434 145.561 -58.3771 145.123 -59.1118C144.438 -56.8776 143.829 -54.6126 143.312 -52.3221L143.348 -52.2127C143.942 -53.2234 144.531 -54.2143 145.114 -55.1845L145.631 -54.9123C144.96 -53.795 144.28 -52.6508 143.596 -51.4811ZM142.303 -50.4159C142.429 -51.0459 142.562 -51.6741 142.702 -52.3003C142.425 -53.1485 142.169 -53.9967 141.934 -54.8449C141.895 -53.4995 141.896 -52.1494 141.941 -50.7956C141.952 -50.4821 141.965 -50.1683 141.98 -49.8543L142.147 -50.1448L142.303 -50.4159ZM147.108 -55.9809C146.509 -54.8749 145.913 -53.7511 145.325 -52.6104C145.825 -53.862 146.344 -55.1006 146.878 -56.3254C146.954 -56.2105 147.031 -56.0957 147.108 -55.9809ZM151.963 -64.5018C150.463 -61.9777 148.932 -59.3225 147.42 -56.5531C147.331 -56.6869 147.242 -56.8206 147.155 -56.9545C148.424 -59.8239 149.775 -62.6151 151.166 -65.3142C151.428 -65.0431 151.694 -64.7723 151.963 -64.5018ZM150.737 -65.76C149.93 -66.605 149.153 -67.4526 148.405 -68.3026C147.288 -65.5476 146.26 -62.7289 145.355 -59.8581C145.807 -59.0852 146.279 -58.3133 146.773 -57.5425C148.031 -60.3638 149.366 -63.1074 150.737 -65.76ZM144.719 -59.799C144.063 -57.7006 143.472 -55.574 142.961 -53.4238C142.61 -54.5646 142.298 -55.7053 142.021 -56.8453C142.152 -59.0823 142.392 -61.3049 142.727 -63.5087C143.34 -62.27 144.003 -61.0332 144.719 -59.799ZM147.973 -68.7985C146.874 -66.1074 145.857 -63.3541 144.957 -60.5493C144.207 -61.8681 143.518 -63.1896 142.886 -64.5128C143.351 -67.3224 143.967 -70.1001 144.706 -72.8364C145.725 -71.4853 146.813 -70.139 147.973 -68.7985ZM144.258 -73.4365C142.982 -75.1653 141.818 -76.9018 140.761 -78.6439C140.473 -76.0149 140.326 -73.3624 140.345 -70.694C140.952 -68.9456 141.65 -67.1978 142.447 -65.4526C142.923 -68.1476 143.535 -70.8118 144.258 -73.4365ZM142.276 -64.4407C141.576 -65.9162 140.947 -67.3941 140.384 -68.8731C140.503 -65.5491 140.884 -62.2017 141.574 -58.8455C141.737 -60.7229 141.973 -62.5888 142.276 -64.4407ZM140.262 -79.4799C139.982 -77.1566 139.811 -74.814 139.765 -72.4573C138.442 -76.7013 137.65 -80.9445 137.3 -85.1573C138.169 -83.2604 139.154 -81.3671 140.262 -79.4799ZM115.052 13.942C114.296 -8.75288 125.685 -30.3811 135.295 -46.3699L135.812 -46.0977C126.204 -30.1123 114.893 -8.60058 115.644 13.9299C116.393 36.4264 129.174 60.0015 167.906 80.1217C213.01 103.552 248.056 100.364 275.129 97.9019C277.643 97.6733 280.089 97.4508 282.467 97.2566C296.451 96.1144 308.186 95.9363 317.903 101.271C327.63 106.611 335.264 117.431 341.187 138.107L340.615 138.244C334.706 117.617 327.129 106.972 317.606 101.744C308.073 96.511 296.521 96.6619 282.524 97.8052C280.148 97.9992 277.703 98.2216 275.189 98.4504C248.101 100.915 212.892 104.118 167.622 80.602C128.744 60.4064 115.81 36.6709 115.052 13.942ZM123.927 -39.2375C114.316 -23.2486 102.927 -1.62042 103.684 21.0744C104.441 43.8033 117.376 67.5389 156.253 87.7345C201.523 111.251 236.733 108.047 263.82 105.583L263.824 105.583C266.337 105.354 268.781 105.132 271.156 104.938C285.153 103.794 296.704 103.643 306.237 108.877C315.76 114.105 323.338 124.749 329.247 145.377L329.818 145.239C323.896 124.564 316.261 113.743 306.534 108.403C296.818 103.069 285.082 103.247 271.099 104.389C268.721 104.583 266.276 104.806 263.763 105.034L263.761 105.034C236.687 107.497 201.641 110.684 156.538 87.2542C117.805 67.134 105.025 43.5588 104.275 21.0624C103.524 -1.46812 114.835 -22.9799 124.444 -38.9652L123.927 -39.2375ZM91.2579 26.9905C90.5015 4.29563 101.89 -17.3326 111.501 -33.3214L112.018 -33.0492C102.409 -17.0638 91.0982 4.44794 91.8492 26.9784C92.599 49.4749 105.379 73.05 144.112 93.1703C189.216 116.6 224.262 113.413 251.335 110.95C253.849 110.722 256.294 110.499 258.673 110.305C272.657 109.163 284.392 108.985 294.108 114.319C303.835 119.659 311.47 130.48 317.392 151.155L316.821 151.293C310.912 130.665 303.334 120.021 293.811 114.793C284.279 109.56 272.727 109.71 258.73 110.854C256.354 111.048 253.909 111.27 251.395 111.499C224.307 113.963 189.097 117.167 143.827 93.6505C104.95 73.455 92.0155 49.7194 91.2579 26.9905ZM98.4421 -28.165C88.8314 -12.1762 77.4425 9.45202 78.199 32.1469C78.9565 54.8758 91.8908 78.6113 130.768 98.8069C176.038 122.323 211.248 119.12 238.336 116.655L238.342 116.655C240.854 116.426 243.297 116.204 245.671 116.01C259.668 114.867 271.22 114.716 280.752 119.949C290.275 125.177 297.853 135.822 303.762 156.449L304.333 156.312C298.411 135.636 290.776 124.816 281.049 119.476C271.333 114.141 259.598 114.319 245.614 115.461C243.236 115.656 240.791 115.878 238.278 116.107L238.276 116.107C211.203 118.569 176.157 121.756 131.053 98.3266C92.3205 78.2064 79.54 54.6313 78.7902 32.1348C78.0392 9.60433 89.3504 -11.9074 98.9589 -27.8928L98.4421 -28.165ZM64.8365 36.9311C64.0801 14.2362 75.469 -7.392 85.0796 -23.3809L85.5965 -23.1086C75.9879 -7.12327 64.6768 14.3885 65.4277 36.919C66.1775 59.4154 78.958 82.9906 117.691 103.111C162.794 126.541 197.84 123.353 224.913 120.891C227.427 120.662 229.873 120.44 232.251 120.246C246.235 119.104 257.97 118.925 267.687 124.26C277.414 129.6 285.048 140.421 290.971 161.096L290.4 161.233C284.491 140.606 276.913 129.962 267.39 124.734C257.857 119.5 246.305 119.651 232.308 120.794C229.932 120.988 227.488 121.211 224.973 121.439C197.885 123.904 162.676 127.107 117.406 103.591C78.5283 83.3955 65.594 59.6599 64.8365 36.9311ZM71.6683 -18.6596C62.0576 -2.67075 50.6687 18.9574 51.4252 41.6523C52.1827 64.3812 65.1169 88.1168 103.995 108.312C149.264 131.829 184.474 128.625 211.562 126.161C214.076 125.932 216.521 125.71 218.897 125.515C232.894 124.372 244.446 124.221 253.979 129.455C263.501 134.683 271.079 145.327 276.988 165.955L277.56 165.817C271.637 145.142 264.002 134.321 254.276 128.981C244.559 123.647 232.824 123.825 218.84 124.967C216.462 125.161 214.016 125.384 211.502 125.612C184.429 128.074 149.383 131.262 104.279 107.832C65.5467 87.7118 52.7662 64.1367 52.0164 41.6402C51.2654 19.1097 62.5765 -2.40201 72.1851 -18.3874L71.6683 -18.6596ZM38.1489 46.544C37.3925 23.8491 48.7814 2.22093 58.392 -13.7679L58.9089 -13.4957C49.3003 2.48966 37.9892 24.0014 38.7401 46.5319C39.4899 69.0284 52.2704 92.6035 91.003 112.724C136.107 136.153 171.152 132.966 198.226 130.504L198.228 130.504C200.741 130.275 203.186 130.053 205.564 129.859C219.547 128.716 231.283 128.538 240.999 133.873C250.726 139.213 258.361 150.033 264.283 170.709L263.712 170.846C257.803 150.219 250.225 139.574 240.702 134.346C231.169 129.113 219.618 129.264 205.621 130.407C203.247 130.601 200.804 130.823 198.292 131.052L198.285 131.052C171.198 133.517 135.988 136.72 90.7183 113.204C51.8407 93.0084 38.9064 69.2729 38.1489 46.544ZM45.3952 -8.53599C35.7845 7.45287 24.3956 29.0811 25.152 51.7759C25.9096 74.5048 38.8438 98.2404 77.7214 118.436C122.991 141.952 158.201 138.749 185.289 136.284L185.294 136.284L185.295 136.284C187.808 136.055 190.25 135.833 192.624 135.639C206.621 134.496 218.173 134.345 227.705 139.578C237.228 144.806 244.806 155.451 250.715 176.078L251.286 175.941C245.364 155.265 237.729 144.445 228.002 139.105C218.286 133.77 206.551 133.948 192.567 135.091C190.189 135.285 187.745 135.507 185.232 135.736L185.229 135.736C158.156 138.198 123.11 141.385 78.0061 117.956C39.2735 97.8355 26.4931 74.2603 25.7432 51.7638C24.9923 29.2334 36.3034 7.7216 45.912 -8.26376L45.3952 -8.53599ZM12.5361 57.4654C11.7797 34.7706 23.1686 13.1424 32.7792 -2.84647L33.2961 -2.57425C23.6875 13.4111 12.3764 34.9229 13.1273 57.4534C13.8771 79.9498 26.6576 103.525 65.3902 123.645C110.494 147.075 145.54 143.888 172.613 141.425L172.614 141.425L172.622 141.425C175.133 141.196 177.575 140.974 179.951 140.78C193.935 139.638 205.67 139.46 215.387 144.794C225.113 150.134 232.748 160.955 238.671 181.63L238.099 181.768C232.19 161.14 224.612 150.496 215.09 145.268C205.557 140.034 194.005 140.185 180.008 141.329C177.632 141.523 175.187 141.745 172.673 141.974C145.585 144.438 110.375 147.642 65.1055 124.125C26.2279 103.93 13.2936 80.1943 12.5361 57.4654ZM20.6161 3.37831C11.0054 19.3672 -0.383464 40.9953 0.372957 63.6902C1.13051 86.4191 14.0648 110.155 52.9424 130.35C98.2123 153.866 133.422 150.663 160.51 148.199C163.024 147.97 165.469 147.747 167.845 147.553C181.842 146.41 193.393 146.259 202.926 151.493C212.449 156.721 220.027 167.365 225.936 187.992L226.507 187.855C220.585 167.18 212.95 156.359 203.223 151.019C193.507 145.685 181.772 145.863 167.788 147.005C165.409 147.199 162.964 147.421 160.45 147.65C133.377 150.112 98.3306 153.3 53.227 129.87C14.4945 109.75 1.71399 86.1746 0.964192 63.6781C0.213247 41.1477 11.5243 19.6359 21.1329 3.65053L20.6161 3.37831Z" fill="url(#paint0_radial_5_8384)" fill-opacity="0.58"/>
<path fill-rule="evenodd" clip-rule="evenodd" d="M152.135 -168.543C142.524 -152.554 131.136 -130.926 131.892 -108.231C132.129 -101.124 133.556 -93.9186 136.595 -86.7536C136.9 -81.4026 137.893 -76.0015 139.755 -70.6093C139.759 -70.0752 139.77 -69.5404 139.788 -69.0051C139.923 -64.961 140.443 -60.8851 141.426 -56.8029C141.312 -54.807 141.283 -52.7995 141.35 -50.7835C141.371 -50.1594 141.401 -49.5345 141.44 -48.9089C132.837 -33.7515 124.21 -14.72 124.871 5.12742C125.629 27.8563 138.563 51.5919 177.441 71.7875C222.711 95.3036 257.92 92.1003 285.008 89.6358C287.522 89.4071 289.967 89.1847 292.343 88.9906C306.34 87.8474 317.892 87.6964 327.425 92.9299C336.947 98.1579 344.525 108.802 350.434 129.43L351.006 129.292C345.083 108.617 337.449 97.7962 327.722 92.4562C318.005 87.1218 306.27 87.2999 292.286 88.442C289.908 88.6363 287.462 88.8587 284.948 89.0874C257.875 91.5496 222.829 94.7369 177.725 71.3072C138.993 51.187 126.212 27.6118 125.462 5.11535C124.817 -14.2475 133.081 -32.858 141.516 -47.8549C141.55 -47.4308 141.588 -47.0065 141.631 -46.582C141.517 -45.8211 141.414 -45.058 141.323 -44.2928C136.075 -32.4715 132.193 -19.2949 132.644 -5.73752C133.402 16.9914 146.336 40.7269 185.214 60.9225C230.484 84.4387 265.693 81.2354 292.781 78.7709C295.295 78.5421 297.74 78.3197 300.116 78.1256C314.113 76.9824 325.665 76.8315 335.198 82.065C344.721 87.293 352.299 97.9374 358.207 118.565L358.779 118.427C352.856 97.7519 345.222 86.9313 335.495 81.5913C325.778 76.2568 314.043 76.4349 300.059 77.5771C297.681 77.7713 295.235 77.9938 292.721 78.2224C265.648 80.6847 230.602 83.872 185.498 60.4422C146.766 40.322 133.985 16.7469 133.236 -5.74959C132.809 -18.5559 136.279 -31.033 141.118 -42.3533L141.109 -42.2535L141.094 -42.0792C138.973 -34.5808 137.745 -26.7542 138.01 -18.7965C138.767 3.93243 151.702 27.668 190.579 47.8636C235.849 71.3798 271.059 68.1764 298.146 65.712L298.153 65.7114C300.665 65.4828 303.107 65.2606 305.482 65.0667C319.479 63.9235 331.03 63.7725 340.563 69.0061C350.086 74.234 357.664 84.8784 363.573 105.506L364.144 105.368C358.222 84.693 350.587 73.8724 340.86 68.5324C331.144 63.1979 319.408 63.376 305.425 64.5182C303.046 64.7124 300.601 64.9348 298.087 65.1635C271.013 67.6257 235.967 70.8131 190.864 47.3833C152.131 27.2631 139.351 3.68793 138.601 -18.8085C138.372 -25.6822 139.266 -32.461 140.891 -39.017C140.817 -37.3254 140.805 -35.6258 140.862 -33.9202C141.619 -11.1913 154.553 12.5443 193.431 32.7399C238.701 56.2561 273.91 53.0527 300.998 50.5883L301.002 50.588C303.515 50.3593 305.958 50.137 308.333 49.943C322.33 48.7998 333.882 48.6488 343.415 53.8823C352.938 59.1103 360.516 69.7547 366.425 90.3821L366.996 90.2448C361.073 69.5693 353.439 58.7487 343.712 53.4087C333.995 48.0742 322.26 48.2523 308.276 49.3945C305.899 49.5887 303.454 49.811 300.94 50.0396L300.938 50.0398C273.865 52.502 238.819 55.6894 193.716 32.2596C154.983 12.1394 142.203 -11.4358 141.453 -33.9322C141.363 -36.6326 141.446 -39.3183 141.679 -41.9817C141.802 -42.4151 141.928 -42.8475 142.056 -43.2787C145.255 -22.8934 159.304 -2.10526 193.92 15.8765C239.19 39.3927 274.399 36.1893 301.487 33.7249L301.499 33.7238L301.509 33.7228L301.526 33.7213L301.53 33.721C304.029 33.4936 306.459 33.2726 308.822 33.0796C322.819 31.9364 334.371 31.7855 343.904 37.019C353.426 42.247 361.004 52.8914 366.913 73.5187L367.485 73.3814C361.562 52.7059 353.927 41.8853 344.201 36.5453C334.484 31.2108 322.749 31.3889 308.765 32.5311C306.387 32.7253 303.941 32.9477 301.427 33.1764C274.354 35.6386 239.308 38.826 194.204 15.3962C159.015 -2.88313 145.247 -24.0142 142.46 -44.5972C142.744 -45.5039 143.041 -46.4054 143.349 -47.3014C143.569 -47.7655 143.79 -48.2274 144.014 -48.6869C150.469 -32.5426 164.981 -16.5662 192.357 -2.34503C237.627 21.1711 272.837 17.9678 299.925 15.5033C302.439 15.2746 304.884 15.0522 307.26 14.8581C321.257 13.7149 332.809 13.5639 342.341 18.7974C351.864 24.0254 359.442 34.6698 365.351 55.2972L365.922 55.1598C360 34.4844 352.365 23.6638 342.638 18.3237C332.922 12.9893 321.187 13.1674 307.203 14.3095C304.824 14.5038 302.379 14.7262 299.865 14.9549C272.792 17.4171 237.746 20.6045 192.642 -2.82531C165.077 -17.1446 150.656 -33.2138 144.362 -49.3987C145.376 -51.4619 146.421 -53.4763 147.479 -55.4362C155.594 -43.6189 168.815 -32.1195 189.098 -21.5836C234.367 1.93259 269.577 -1.27075 296.665 -3.73522L296.669 -3.7356L296.676 -3.73628C299.187 -3.96466 301.627 -4.18669 304 -4.38045C317.997 -5.52368 329.549 -5.67462 339.082 -0.441118C348.604 4.78687 356.182 15.4313 362.091 36.0586L362.663 35.9213C356.74 15.2458 349.105 4.42521 339.379 -0.914794C329.662 -6.24928 317.927 -6.07116 303.943 -4.92901C301.565 -4.73477 299.119 -4.51236 296.605 -4.28369C269.532 -1.82146 234.486 1.3659 189.382 -22.0639C169.018 -32.6425 155.827 -44.1763 147.788 -56.0062C149.316 -58.8164 150.867 -61.5121 152.388 -64.0762C160.252 -56.2669 170.741 -48.6986 184.461 -41.5712C229.731 -18.0551 264.941 -21.2584 292.029 -23.7229L292.033 -23.7233L292.04 -23.7239C294.551 -23.9523 296.991 -24.1744 299.364 -24.3681C313.361 -25.5113 324.913 -25.6623 334.445 -20.4288C343.968 -15.2008 351.546 -4.55638 357.455 16.071L358.026 15.9336C352.104 -4.74183 344.469 -15.5625 334.742 -20.9025C325.026 -26.2369 313.291 -26.0588 299.307 -24.9167C296.929 -24.7224 294.484 -24.5001 291.97 -24.2714L291.969 -24.2713C264.896 -21.8091 229.85 -18.6218 184.746 -42.0515C170.998 -49.1933 160.519 -56.7703 152.688 -64.58C152.928 -64.9824 153.167 -65.3815 153.404 -65.7772L152.888 -66.0494C152.68 -65.7044 152.472 -65.3567 152.263 -65.0065C151.986 -65.2866 151.712 -65.567 151.442 -65.8477C153.847 -70.4769 156.362 -74.8301 158.77 -78.8361L158.253 -79.1084C155.879 -75.1583 153.396 -70.864 151.014 -66.2945C150.194 -67.1584 149.405 -68.025 148.647 -68.894C152.443 -78.1228 157.212 -86.6233 161.622 -93.9598L161.105 -94.2321C156.741 -86.9719 152.01 -78.5489 148.216 -69.3913C147.035 -70.7681 145.93 -72.1508 144.898 -73.5382C148.783 -87.4944 155.812 -100.346 162.11 -110.823L161.593 -111.095C155.364 -100.731 148.387 -87.9981 144.455 -74.1407C143.139 -75.9493 141.947 -77.7657 140.87 -79.5875C143.155 -98.198 152.455 -115.581 160.548 -129.045L160.031 -129.317C152.049 -116.038 142.84 -98.8683 140.382 -80.4287C139.16 -82.5697 138.097 -84.7177 137.181 -86.8687C137.155 -87.3315 137.135 -87.7938 137.119 -88.2557C136.368 -110.786 147.68 -132.298 157.288 -148.283L156.771 -148.556C147.195 -132.623 135.852 -111.091 136.521 -88.484C133.933 -95.0874 132.701 -101.711 132.483 -108.243C131.732 -130.774 143.043 -152.286 152.652 -168.271L152.135 -168.543ZM142.867 -50.2259C142.626 -49.0121 142.411 -47.7917 142.226 -46.5654C142.234 -46.4894 142.242 -46.4134 142.25 -46.3374C142.431 -46.7278 142.613 -47.1166 142.796 -47.5038C143.056 -48.2584 143.323 -49.0091 143.598 -49.7555C143.465 -50.1089 143.335 -50.4625 143.209 -50.8161C143.095 -50.62 142.981 -50.4233 142.867 -50.2259ZM143.596 -51.4811C143.699 -51.1858 143.803 -50.8904 143.911 -50.5951C144.719 -52.7377 145.585 -54.8446 146.494 -56.9107C146.018 -57.6434 145.561 -58.3771 145.123 -59.1118C144.438 -56.8776 143.829 -54.6126 143.312 -52.3221L143.348 -52.2127C143.942 -53.2234 144.531 -54.2143 145.114 -55.1845L145.631 -54.9123C144.96 -53.795 144.28 -52.6508 143.596 -51.4811ZM142.303 -50.4159C142.429 -51.0459 142.562 -51.6741 142.702 -52.3003C142.425 -53.1485 142.169 -53.9967 141.934 -54.8449C141.895 -53.4995 141.896 -52.1494 141.941 -50.7956C141.952 -50.4821 141.965 -50.1683 141.98 -49.8543L142.147 -50.1448L142.303 -50.4159ZM147.108 -55.9809C146.509 -54.8749 145.913 -53.7511 145.325 -52.6104C145.825 -53.862 146.344 -55.1006 146.878 -56.3254C146.954 -56.2105 147.031 -56.0957 147.108 -55.9809ZM151.963 -64.5018C150.463 -61.9777 148.932 -59.3225 147.42 -56.5531C147.331 -56.6869 147.242 -56.8206 147.155 -56.9545C148.424 -59.8239 149.775 -62.6151 151.166 -65.3142C151.428 -65.0431 151.694 -64.7723 151.963 -64.5018ZM150.737 -65.76C149.93 -66.605 149.153 -67.4526 148.405 -68.3026C147.288 -65.5476 146.26 -62.7289 145.355 -59.8581C145.807 -59.0852 146.279 -58.3133 146.773 -57.5425C148.031 -60.3638 149.366 -63.1074 150.737 -65.76ZM144.719 -59.799C144.063 -57.7006 143.472 -55.574 142.961 -53.4238C142.61 -54.5646 142.298 -55.7053 142.021 -56.8453C142.152 -59.0823 142.392 -61.3049 142.727 -63.5087C143.34 -62.27 144.003 -61.0332 144.719 -59.799ZM147.973 -68.7985C146.874 -66.1074 145.857 -63.3541 144.957 -60.5493C144.207 -61.8681 143.518 -63.1896 142.886 -64.5128C143.351 -67.3224 143.967 -70.1001 144.706 -72.8364C145.725 -71.4853 146.813 -70.139 147.973 -68.7985ZM144.258 -73.4365C142.982 -75.1653 141.818 -76.9018 140.761 -78.6439C140.473 -76.0149 140.326 -73.3624 140.345 -70.694C140.952 -68.9456 141.65 -67.1978 142.447 -65.4526C142.923 -68.1476 143.535 -70.8118 144.258 -73.4365ZM142.276 -64.4407C141.576 -65.9162 140.947 -67.3941 140.384 -68.8731C140.503 -65.5491 140.884 -62.2017 141.574 -58.8455C141.737 -60.7229 141.973 -62.5888 142.276 -64.4407ZM140.262 -79.4799C139.982 -77.1566 139.811 -74.814 139.765 -72.4573C138.442 -76.7013 137.65 -80.9445 137.3 -85.1573C138.169 -83.2604 139.154 -81.3671 140.262 -79.4799ZM115.052 13.942C114.296 -8.75288 125.685 -30.3811 135.295 -46.3699L135.812 -46.0977C126.204 -30.1123 114.893 -8.60058 115.644 13.9299C116.393 36.4264 129.174 60.0015 167.906 80.1217C213.01 103.552 248.056 100.364 275.129 97.9019C277.643 97.6733 280.089 97.4508 282.467 97.2566C296.451 96.1144 308.186 95.9363 317.903 101.271C327.63 106.611 335.264 117.431 341.187 138.107L340.615 138.244C334.706 117.617 327.129 106.972 317.606 101.744C308.073 96.511 296.521 96.6619 282.524 97.8052C280.148 97.9992 277.703 98.2216 275.189 98.4504C248.101 100.915 212.892 104.118 167.622 80.602C128.744 60.4064 115.81 36.6709 115.052 13.942ZM123.927 -39.2375C114.316 -23.2486 102.927 -1.62042 103.684 21.0744C104.441 43.8033 117.376 67.5389 156.253 87.7345C201.523 111.251 236.733 108.047 263.82 105.583L263.824 105.583C266.337 105.354 268.781 105.132 271.156 104.938C285.153 103.794 296.704 103.643 306.237 108.877C315.76 114.105 323.338 124.749 329.247 145.377L329.818 145.239C323.896 124.564 316.261 113.743 306.534 108.403C296.818 103.069 285.082 103.247 271.099 104.389C268.721 104.583 266.276 104.806 263.763 105.034L263.761 105.034C236.687 107.497 201.641 110.684 156.538 87.2542C117.805 67.134 105.025 43.5588 104.275 21.0624C103.524 -1.46812 114.835 -22.9799 124.444 -38.9652L123.927 -39.2375ZM91.2579 26.9905C90.5015 4.29563 101.89 -17.3326 111.501 -33.3214L112.018 -33.0492C102.409 -17.0638 91.0982 4.44794 91.8492 26.9784C92.599 49.4749 105.379 73.05 144.112 93.1703C189.216 116.6 224.262 113.413 251.335 110.95C253.849 110.722 256.294 110.499 258.673 110.305C272.657 109.163 284.392 108.985 294.108 114.319C303.835 119.659 311.47 130.48 317.392 151.155L316.821 151.293C310.912 130.665 303.334 120.021 293.811 114.793C284.279 109.56 272.727 109.71 258.73 110.854C256.354 111.048 253.909 111.27 251.395 111.499C224.307 113.963 189.097 117.167 143.827 93.6505C104.95 73.455 92.0155 49.7194 91.2579 26.9905ZM98.4421 -28.165C88.8314 -12.1762 77.4425 9.45202 78.199 32.1469C78.9565 54.8758 91.8908 78.6113 130.768 98.8069C176.038 122.323 211.248 119.12 238.336 116.655L238.342 116.655C240.854 116.426 243.297 116.204 245.671 116.01C259.668 114.867 271.22 114.716 280.752 119.949C290.275 125.177 297.853 135.822 303.762 156.449L304.333 156.312C298.411 135.636 290.776 124.816 281.049 119.476C271.333 114.141 259.598 114.319 245.614 115.461C243.236 115.656 240.791 115.878 238.278 116.107L238.276 116.107C211.203 118.569 176.157 121.756 131.053 98.3266C92.3205 78.2064 79.54 54.6313 78.7902 32.1348C78.0392 9.60433 89.3504 -11.9074 98.9589 -27.8928L98.4421 -28.165ZM64.8365 36.9311C64.0801 14.2362 75.469 -7.392 85.0796 -23.3809L85.5965 -23.1086C75.9879 -7.12327 64.6768 14.3885 65.4277 36.919C66.1775 59.4154 78.958 82.9906 117.691 103.111C162.794 126.541 197.84 123.353 224.913 120.891C227.427 120.662 229.873 120.44 232.251 120.246C246.235 119.104 257.97 118.925 267.687 124.26C277.414 129.6 285.048 140.421 290.971 161.096L290.4 161.233C284.491 140.606 276.913 129.962 267.39 124.734C257.857 119.5 246.305 119.651 232.308 120.794C229.932 120.988 227.488 121.211 224.973 121.439C197.885 123.904 162.676 127.107 117.406 103.591C78.5283 83.3955 65.594 59.6599 64.8365 36.9311ZM71.6683 -18.6596C62.0576 -2.67075 50.6687 18.9574 51.4252 41.6523C52.1827 64.3812 65.1169 88.1168 103.995 108.312C149.264 131.829 184.474 128.625 211.562 126.161C214.076 125.932 216.521 125.71 218.897 125.515C232.894 124.372 244.446 124.221 253.979 129.455C263.501 134.683 271.079 145.327 276.988 165.955L277.56 165.817C271.637 145.142 264.002 134.321 254.276 128.981C244.559 123.647 232.824 123.825 218.84 124.967C216.462 125.161 214.016 125.384 211.502 125.612C184.429 128.074 149.383 131.262 104.279 107.832C65.5467 87.7118 52.7662 64.1367 52.0164 41.6402C51.2654 19.1097 62.5765 -2.40201 72.1851 -18.3874L71.6683 -18.6596ZM38.1489 46.544C37.3925 23.8491 48.7814 2.22093 58.392 -13.7679L58.9089 -13.4957C49.3003 2.48966 37.9892 24.0014 38.7401 46.5319C39.4899 69.0284 52.2704 92.6035 91.003 112.724C136.107 136.153 171.152 132.966 198.226 130.504L198.228 130.504C200.741 130.275 203.186 130.053 205.564 129.859C219.547 128.716 231.283 128.538 240.999 133.873C250.726 139.213 258.361 150.033 264.283 170.709L263.712 170.846C257.803 150.219 250.225 139.574 240.702 134.346C231.169 129.113 219.618 129.264 205.621 130.407C203.247 130.601 200.804 130.823 198.292 131.052L198.285 131.052C171.198 133.517 135.988 136.72 90.7183 113.204C51.8407 93.0084 38.9064 69.2729 38.1489 46.544ZM45.3952 -8.53599C35.7845 7.45287 24.3956 29.0811 25.152 51.7759C25.9096 74.5048 38.8438 98.2404 77.7214 118.436C122.991 141.952 158.201 138.749 185.289 136.284L185.294 136.284L185.295 136.284C187.808 136.055 190.25 135.833 192.624 135.639C206.621 134.496 218.173 134.345 227.705 139.578C237.228 144.806 244.806 155.451 250.715 176.078L251.286 175.941C245.364 155.265 237.729 144.445 228.002 139.105C218.286 133.77 206.551 133.948 192.567 135.091C190.189 135.285 187.745 135.507 185.232 135.736L185.229 135.736C158.156 138.198 123.11 141.385 78.0061 117.956C39.2735 97.8355 26.4931 74.2603 25.7432 51.7638C24.9923 29.2334 36.3034 7.7216 45.912 -8.26376L45.3952 -8.53599ZM12.5361 57.4654C11.7797 34.7706 23.1686 13.1424 32.7792 -2.84647L33.2961 -2.57425C23.6875 13.4111 12.3764 34.9229 13.1273 57.4534C13.8771 79.9498 26.6576 103.525 65.3902 123.645C110.494 147.075 145.54 143.888 172.613 141.425L172.614 141.425L172.622 141.425C175.133 141.196 177.575 140.974 179.951 140.78C193.935 139.638 205.67 139.46 215.387 144.794C225.113 150.134 232.748 160.955 238.671 181.63L238.099 181.768C232.19 161.14 224.612 150.496 215.09 145.268C205.557 140.034 194.005 140.185 180.008 141.329C177.632 141.523 175.187 141.745 172.673 141.974C145.585 144.438 110.375 147.642 65.1055 124.125C26.2279 103.93 13.2936 80.1943 12.5361 57.4654ZM20.6161 3.37831C11.0054 19.3672 -0.383464 40.9953 0.372957 63.6902C1.13051 86.4191 14.0648 110.155 52.9424 130.35C98.2123 153.866 133.422 150.663 160.51 148.199C163.024 147.97 165.469 147.747 167.845 147.553C181.842 146.41 193.393 146.259 202.926 151.493C212.449 156.721 220.027 167.365 225.936 187.992L226.507 187.855C220.585 167.18 212.95 156.359 203.223 151.019C193.507 145.685 181.772 145.863 167.788 147.005C165.409 147.199 162.964 147.421 160.45 147.65C133.377 150.112 98.3306 153.3 53.227 129.87C14.4945 109.75 1.71399 86.1746 0.964192 63.6781C0.213247 41.1477 11.5243 19.6359 21.1329 3.65053L20.6161 3.37831Z" fill="#98855A" fill-opacity="0.5"/>
<defs>
<radialGradient id="paint0_radial_5_8384" cx="0" cy="0" r="1" gradientUnits="userSpaceOnUse" gradientTransform="translate(158.1 53.5167) rotate(35.1921) scale(183.673 161.677)">
<stop stop-color="white"/>
<stop offset="1" stop-color="#1E1E1E" stop-opacity="0"/>
<stop offset="1" stop-color="#0E0E35" stop-opacity="0"/>
<stop offset="1" stop-color="white" stop-opacity="0"/>
</radialGradient>
</defs>
</svg>
